<?xml version="1.0" standalone="no"?><!-- Generator: Gravit.io --><svg xmlns="http://www.w3.org/2000/svg" xmlns:xlink="http://www.w3.org/1999/xlink" style="isolation:isolate" viewBox="624.988 200 510.025 486.271" width="510.025" height="486.271"><path d=" M 743.354 680.754 L 846.137 618.155 C 864.678 606.862 894.762 606.901 913.275 618.241 L 1015.898 681.102 C 1034.411 692.442 1045.373 684.499 1040.363 663.375 L 1012.589 546.279 C 1007.579 525.155 1016.912 496.555 1033.418 482.452 L 1124.915 404.278 C 1141.42 390.175 1137.253 377.295 1115.615 375.532 L 995.667 365.762 C 974.029 363.999 949.713 346.285 941.401 326.229 L 895.327 215.053 C 887.015 194.997 873.477 194.98 865.114 215.015 L 818.756 326.073 C 810.393 346.108 786.032 363.759 764.39 365.467 L 644.417 374.931 C 622.774 376.638 618.574 389.508 635.044 403.652 L 726.341 482.06 C 742.811 496.205 752.071 524.828 747.007 545.94 L 718.934 662.965 C 713.87 684.076 724.812 692.047 743.354 680.754 Z " fill="rgb(6,255,160)"/><clipPath id="_clipPath_K8U2KyxB6xoxMTDXguiDQp5IAz9m9xB8"><path d=" M 743.354 680.754 L 846.137 618.155 C 864.678 606.862 894.762 606.901 913.275 618.241 L 1015.898 681.102 C 1034.411 692.442 1045.373 684.499 1040.363 663.375 L 1012.589 546.279 C 1007.579 525.155 1016.912 496.555 1033.418 482.452 L 1124.915 404.278 C 1141.42 390.175 1137.253 377.295 1115.615 375.532 L 995.667 365.762 C 974.029 363.999 949.713 346.285 941.401 326.229 L 895.327 215.053 C 887.015 194.997 873.477 194.98 865.114 215.015 L 818.756 326.073 C 810.393 346.108 786.032 363.759 764.39 365.467 L 644.417 374.931 C 622.774 376.638 618.574 389.508 635.044 403.652 L 726.341 482.06 C 742.811 496.205 752.071 524.828 747.007 545.94 L 718.934 662.965 C 713.87 684.076 724.812 692.047 743.354 680.754 Z " fill="rgb(6,255,160)"/></clipPath><g clip-path="url(#_clipPath_K8U2KyxB6xoxMTDXguiDQp5IAz9m9xB8)"><rect x="615" y="145" width="555" height="585" transform="matrix(1,0,0,1,0,0)" fill="rgb(235,235,235)"/></g></svg>