<?xml version="1.0" standalone="no"?><!-- Generator: Gravit.io --><svg xmlns="http://www.w3.org/2000/svg" xmlns:xlink="http://www.w3.org/1999/xlink" style="isolation:isolate" viewBox="621.809 197.286 510.025 486.271" width="510.025" height="486.271"><path d=" M 740.175 678.04 L 842.958 615.441 C 861.5 604.148 891.583 604.186 910.096 615.526 L 1012.719 678.388 C 1031.232 689.728 1042.194 681.785 1037.184 660.661 L 1009.41 543.564 C 1004.4 522.44 1013.733 493.841 1030.239 479.738 L 1121.736 401.563 C 1138.242 387.461 1134.075 374.58 1112.436 372.818 L 992.488 363.047 C 970.85 361.285 946.534 343.571 938.222 323.515 L 892.148 212.339 C 883.836 192.283 870.298 192.266 861.936 212.3 L 815.578 323.358 C 807.215 343.393 782.854 361.045 761.211 362.752 L 641.238 372.216 C 619.595 373.924 615.396 386.793 631.865 400.938 L 723.163 479.346 C 739.632 493.491 748.892 522.114 743.828 543.225 L 715.755 660.25 C 710.691 681.362 721.633 689.333 740.175 678.04 Z " fill="rgb(6,255,160)"/><clipPath id="_clipPath_QYuOKipAtWEm2CHhCIivGAgbugDUO1k3"><path d=" M 740.175 678.04 L 842.958 615.441 C 861.5 604.148 891.583 604.186 910.096 615.526 L 1012.719 678.388 C 1031.232 689.728 1042.194 681.785 1037.184 660.661 L 1009.41 543.564 C 1004.4 522.44 1013.733 493.841 1030.239 479.738 L 1121.736 401.563 C 1138.242 387.461 1134.075 374.58 1112.436 372.818 L 992.488 363.047 C 970.85 361.285 946.534 343.571 938.222 323.515 L 892.148 212.339 C 883.836 192.283 870.298 192.266 861.936 212.3 L 815.578 323.358 C 807.215 343.393 782.854 361.045 761.211 362.752 L 641.238 372.216 C 619.595 373.924 615.396 386.793 631.865 400.938 L 723.163 479.346 C 739.632 493.491 748.892 522.114 743.828 543.225 L 715.755 660.25 C 710.691 681.362 721.633 689.333 740.175 678.04 Z " fill="rgb(6,255,160)"/></clipPath><g clip-path="url(#_clipPath_QYuOKipAtWEm2CHhCIivGAgbugDUO1k3)"><rect x="876.821" y="147.921" width="323.821" height="585" transform="matrix(1,0,0,1,0,0)" fill="rgb(235,235,235)"/></g></svg>