<?xml version="1.0" standalone="no"?><!-- Generator: Gravit.io --><svg xmlns="http://www.w3.org/2000/svg" xmlns:xlink="http://www.w3.org/1999/xlink" style="isolation:isolate" viewBox="13.294 69.645 533.412 175.71" width="533.412" height="175.71"><g id="Typographie"><path d=" M 115.462875 92.503068 L 115.612875 92.503068 C 116.212875 92.304068 116.786875 92.053068 117.337875 91.753068 C 117.886875 91.453068 118.561875 91.303068 119.362875 91.303068 C 119.662875 91.303068 119.812875 91.205068 119.812875 91.003068 L 121.312875 90.253068 C 121.812875 90.455068 122.336875 90.605068 122.887875 90.703068 C 123.435875 90.804068 123.960875 91.055068 124.462875 91.453068 L 125.062875 91.753068 L 127.012875 93.703068 C 127.211875 94.303068 127.462875 95.004068 127.762875 95.803068 C 128.062875 96.605068 128.310875 97.554068 128.512875 98.653068 C 128.711875 100.254068 128.610875 101.503068 128.212875 102.403068 C 127.812875 103.303068 127.462875 104.004068 127.162875 104.503068 L 126.412875 106.303068 L 126.412875 106.153068 L 125.962875 107.953068 C 125.962875 108.155068 125.937875 108.354068 125.887875 108.553068 C 125.835875 108.755068 125.812875 108.954068 125.812875 109.153068 C 125.311875 110.554068 124.736875 112.003068 124.087875 113.503068 C 123.436875 115.003068 122.812875 116.503068 122.212875 118.003068 L 118.462875 127.303068 L 118.462875 127.153068 C 118.261875 127.654068 118.012875 128.255068 117.712875 128.953068 C 117.412875 129.654068 117.161875 130.303068 116.962875 130.903068 L 115.162875 135.103068 L 113.962875 139.453068 C 113.161875 141.755068 112.411875 144.054068 111.712875 146.353068 C 111.011875 148.654068 110.411875 151.003068 109.912875 153.403068 C 109.912875 153.703068 109.860875 154.078068 109.762875 154.528068 C 109.661875 154.978068 109.462875 155.404068 109.162875 155.803068 L 109.462875 155.653068 C 109.261875 155.953068 109.136875 156.279068 109.087875 156.628068 C 109.036875 156.980068 108.961875 157.303068 108.862875 157.603068 C 108.761875 158.003068 108.660875 158.353068 108.562875 158.653068 L 107.962875 163.903068 C 107.861875 164.303068 107.812875 164.630068 107.812875 164.878068 C 107.812875 165.128068 107.812875 165.354068 107.812875 165.553068 L 107.812875 166.753068 C 107.812875 167.255068 107.812875 167.903068 107.812875 168.702068 C 107.812875 169.505068 107.835875 170.304068 107.887875 171.102068 C 107.936875 171.904068 108.112875 172.627068 108.412875 173.278068 C 108.712875 173.929068 109.211875 174.403068 109.912875 174.702068 L 110.062875 174.702068 C 110.662875 174.503068 111.037875 174.454068 111.187875 174.553068 C 111.337875 174.654068 111.661875 174.503068 112.162875 174.103068 L 114.412875 173.203068 L 114.712875 172.754068 C 115.110875 172.453068 115.612875 171.981068 116.212875 171.328068 C 116.812875 170.680068 117.360875 170.105068 117.862875 169.603068 L 118.462875 169.154068 C 118.661875 168.955068 118.962875 168.629068 119.362875 168.178068 C 119.760875 167.728068 120.060875 167.304068 120.262875 166.904068 L 123.862875 162.104068 C 124.361875 161.504068 124.886875 160.730068 125.437875 159.779068 C 125.985875 158.830068 126.562875 157.855068 127.162875 156.854068 C 128.261875 155.455068 129.086875 154.055068 129.637875 152.654068 C 130.185875 151.255068 130.860875 149.856068 131.662875 148.454068 L 131.662875 148.604068 C 132.262875 147.205068 132.862875 145.904068 133.462875 144.704068 C 134.062875 143.504068 134.610875 142.506068 135.112875 141.704068 C 135.712875 140.905068 136.110875 140.155068 136.312875 139.454068 L 137.812875 136.754068 L 137.812875 136.904068 L 139.312875 133.454068 L 139.162875 133.454068 L 140.212875 130.754068 C 140.812875 129.655068 141.412875 128.455068 142.012875 127.154068 C 142.612875 125.856068 143.212875 124.506068 143.812875 123.104068 L 144.412875 121.904068 C 144.511875 121.604068 144.712875 121.079068 145.012875 120.329068 C 145.312875 119.579068 145.462875 119.106068 145.462875 118.904068 L 145.762875 118.004068 C 146.160875 117.404068 146.512875 116.680068 146.812875 115.829068 C 147.112875 114.981068 147.412875 114.006068 147.712875 112.904068 C 148.612875 110.305068 149.610875 107.706068 150.712875 105.104068 C 151.812875 102.504068 152.911875 100.030068 154.012875 97.679068 C 155.111875 95.331068 156.161875 93.130068 157.162875 91.079068 C 158.161875 89.031068 158.962875 87.254068 159.562875 85.754068 C 160.661875 83.455068 161.786875 81.404068 162.937875 79.604068 C 164.085875 77.804068 165.262875 75.905068 166.462875 73.904068 C 166.561875 73.705068 167.036875 73.280068 167.887875 72.629068 C 168.735875 71.980068 169.410875 71.555068 169.912875 71.354068 L 170.362875 72.704068 L 171.412875 71.654068 L 173.512875 71.804068 L 173.662875 71.654068 C 174.461875 71.354068 175.136875 71.455068 175.687875 71.954068 C 176.235875 72.456068 176.861875 73.154068 177.562875 74.054068 L 178.312875 75.704068 C 178.110875 75.906068 178.062875 76.030068 178.162875 76.079068 C 178.261875 76.131068 178.411875 76.180068 178.612875 76.229068 C 178.811875 76.280068 179.010875 76.304068 179.212875 76.304068 C 179.411875 76.304068 179.512875 76.356068 179.512875 76.454068 C 179.310875 76.656068 179.235875 76.881068 179.287875 77.129068 C 179.336875 77.379068 179.310875 77.555068 179.212875 77.654068 C 179.212875 77.954068 179.062875 78.155068 178.762875 78.254068 L 178.012875 79.454068 C 178.012875 80.256068 177.960875 80.706068 177.862875 80.804068 C 177.461875 81.906068 176.835875 83.230068 175.987875 84.779068 C 175.136875 86.331068 174.461875 87.606068 173.962875 88.604068 C 171.562875 93.005068 169.186875 98.030068 166.837875 103.679068 C 164.486875 109.330068 162.312875 114.805068 160.312875 120.104068 L 160.312875 119.804068 C 160.110875 120.305068 159.960875 120.854068 159.862875 121.454068 C 159.761875 122.054068 159.562875 122.605068 159.262875 123.104068 L 156.412875 129.404068 L 153.562875 135.554068 C 152.161875 139.055068 150.712875 142.405068 149.212875 145.604068 C 147.712875 148.805068 146.111875 151.854068 144.412875 154.754068 L 144.412875 154.604068 L 144.112875 155.654068 L 143.662875 157.304068 L 143.062875 157.154068 L 140.812875 162.104068 L 138.112875 166.754068 C 136.612875 169.356068 134.936875 171.955068 133.087875 174.554068 C 131.235875 177.156068 129.412875 179.406068 127.612875 181.304068 C 126.210875 182.703068 124.762875 184.203068 123.262875 185.804068 C 121.762875 187.403068 119.711875 188.903068 117.112875 190.305068 C 115.811875 191.104068 114.761875 191.703068 113.962875 192.104068 C 113.161875 192.502068 112.012875 192.754068 110.512875 192.854068 C 110.111875 192.854068 109.511875 192.903068 108.712875 193.004068 C 107.911875 193.102068 107.362875 193.154068 107.062875 193.154068 L 106.762875 193.154068 C 106.361875 192.953068 106.012875 192.953068 105.712875 193.154068 L 104.662875 192.703068 C 103.762875 192.502068 102.937875 192.203068 102.187875 191.805068 C 101.437875 191.403068 100.661875 190.953068 99.862875 190.453068 C 98.861875 190.053068 97.811875 189.203068 96.712875 187.904068 C 95.911875 186.802068 95.311875 185.628068 94.912875 184.379068 C 94.511875 183.127068 94.110875 181.604068 93.712875 179.804068 C 93.211875 178.506068 92.962875 176.655068 92.962875 174.254068 C 92.962875 171.853068 92.812875 169.855068 92.512875 168.254068 C 92.411875 168.155068 92.362875 168.006068 92.362875 167.804068 L 92.362875 167.655068 C 92.160875 167.655068 92.036875 167.755068 91.987875 167.954068 C 91.935875 168.156068 91.912875 168.306068 91.912875 168.405068 L 81.862875 179.655068 C 81.360875 180.456068 80.835875 180.981068 80.287875 181.229068 C 79.736875 181.477068 79.261875 182.002068 78.862875 182.804068 L 75.562875 186.555068 L 73.462875 188.655068 L 66.412875 194.204068 C 65.610875 194.903068 64.436875 195.429068 62.887875 195.780068 C 61.335875 196.130068 60.210875 196.454068 59.512875 196.755068 C 59.011875 196.954068 58.410875 197.028068 57.712875 196.980068 C 57.011875 196.929068 56.311875 196.853068 55.612875 196.755068 C 54.210875 196.653068 52.811875 196.278068 51.412875 195.630068 C 50.011875 194.978068 48.661875 193.905068 47.362875 192.405068 L 46.612875 191.055068 C 45.911875 189.653068 45.360875 188.328068 44.962875 187.078068 C 44.562875 185.827068 44.411875 184.553068 44.512875 183.254068 L 44.212875 179.203068 C 44.411875 177.006068 44.786875 175.078068 45.337875 173.429068 C 45.886875 171.780068 46.511875 170.106068 47.212875 168.405068 L 48.262875 165.405068 L 51.262875 158.804068 C 51.660875 157.805068 52.087875 156.756068 52.537875 155.654068 C 52.987875 154.555068 53.362875 153.456068 53.662875 152.354068 L 55.612875 148.754068 C 55.811875 148.254068 55.987875 147.805068 56.137875 147.404068 C 56.287875 147.006068 56.460875 146.555068 56.662875 146.054068 L 56.662875 145.454068 L 58.462875 141.104068 L 60.112875 137.354068 L 65.062875 127.004068 L 64.912875 127.304068 C 64.912875 127.206068 64.935875 127.131068 64.987875 127.079068 C 65.036875 127.030068 65.062875 126.955068 65.062875 126.854068 L 65.512875 125.954068 C 65.711875 125.155068 65.985875 124.431068 66.337875 123.779068 C 66.687875 123.130068 67.062875 122.354068 67.462875 121.454068 L 69.262875 117.704068 L 69.112875 117.704068 C 70.511875 114.205068 71.711875 111.156068 72.712875 108.554068 C 73.711875 105.955068 74.761875 103.055068 75.862875 99.854068 L 76.012875 99.554068 C 76.012875 99.456068 76.061875 99.280068 76.162875 99.029068 C 76.261875 98.780068 76.312875 98.605068 76.312875 98.504068 C 77.411875 95.905068 78.112875 93.854068 78.412875 92.354068 C 78.712875 90.854068 78.810875 89.706068 78.712875 88.904068 C 78.911875 88.506068 78.661875 87.831068 77.962875 86.879068 C 77.261875 85.930068 76.711875 85.356068 76.312875 85.154068 L 75.712875 85.154068 C 75.011875 84.955068 74.137875 84.929068 73.087875 85.079068 C 72.037875 85.229068 71.111875 85.304068 70.312875 85.304068 C 68.911875 85.705068 67.912875 85.956068 67.312875 86.054068 C 66.712875 86.155068 65.962875 86.455068 65.062875 86.954068 C 62.460875 88.056068 59.887875 89.380068 57.337875 90.929068 C 54.787875 92.481068 52.361875 94.055068 50.062875 95.654068 C 47.460875 97.655068 44.911875 99.981068 42.412875 102.629068 C 39.911875 105.280068 37.661875 108.005068 35.662875 110.804068 C 34.560875 112.206068 33.661875 113.455068 32.962875 114.554068 C 32.261875 115.656068 31.661875 116.755068 31.162875 117.854068 L 31.162875 118.454068 L 30.712875 119.804068 C 29.712875 121.705068 29.161875 123.756068 29.062875 125.954068 C 28.961875 126.456068 28.961875 127.030068 29.062875 127.679068 C 29.161875 128.331068 29.212875 129.006068 29.212875 129.704068 C 29.212875 129.306068 29.311875 129.104068 29.512875 129.104068 C 29.711875 129.104068 29.985875 129.205068 30.337875 129.404068 C 30.687875 129.606068 30.961875 129.704068 31.162875 129.704068 C 32.062875 129.404068 32.662875 129.231068 32.962875 129.179068 C 33.262875 129.130068 33.487875 129.081068 33.637875 129.029068 C 33.787875 128.980068 33.960875 128.905068 34.162875 128.804068 C 34.361875 128.706068 34.710875 128.455068 35.212875 128.054068 L 36.262875 127.154068 C 36.761875 126.854068 37.286875 126.580068 37.837875 126.329068 C 38.386875 126.081068 38.911875 125.654068 39.412875 125.054068 C 40.012875 123.955068 40.860875 123.179068 41.962875 122.729068 C 43.062875 122.279068 44.161875 122.004068 45.262875 121.904068 C 46.361875 121.904068 47.287875 122.080068 48.037875 122.429068 C 48.787875 122.781068 49.661875 123.254068 50.662875 123.854068 C 51.461875 124.355068 52.036875 124.956068 52.387875 125.654068 C 52.736875 126.355068 53.011875 127.255068 53.212875 128.354068 C 53.610875 130.355068 53.562875 131.830068 53.062875 132.779068 C 52.561875 133.731068 51.712875 134.755068 50.512875 135.854068 L 50.662875 135.854068 C 50.161875 136.555068 49.387875 137.155068 48.337875 137.654068 C 47.287875 138.155068 46.162875 138.805068 44.962875 139.604068 L 43.162875 140.504068 C 42.661875 140.706068 42.161875 140.980068 41.662875 141.329068 C 41.161875 141.681068 40.811875 141.955068 40.612875 142.154068 L 39.712875 142.604068 L 39.562875 142.604068 C 39.461875 142.604068 39.360875 142.555068 39.262875 142.454068 L 37.162875 143.354068 L 36.712875 143.204068 L 36.112875 143.654068 C 34.912875 144.155068 33.611875 144.430068 32.212875 144.479068 C 30.811875 144.530068 29.261875 144.655068 27.562875 144.854068 C 26.362875 145.055068 25.110875 144.980068 23.812875 144.629068 C 22.511875 144.280068 21.164875 143.605068 19.762875 142.604068 C 18.464875 141.905068 17.362875 141.104068 16.462875 140.204068 C 15.562875 139.304068 14.913875 138.156068 14.512875 136.754068 L 14.812875 136.904068 C 14.714875 136.304068 14.563875 135.779068 14.362875 135.329068 C 14.163875 134.879068 13.964875 134.406068 13.762875 133.904068 C 13.262875 132.805068 13.162875 131.354068 13.462875 129.554068 C 13.462875 128.354068 13.514875 127.229068 13.612875 126.179068 C 13.713875 125.129068 14.012875 124.055068 14.512875 122.954068 C 14.812875 121.555068 15.239875 119.954068 15.787875 118.154068 C 16.338875 116.354068 16.964875 114.905068 17.662875 113.804068 C 18.163875 112.506068 18.862875 110.954068 19.762875 109.154068 C 20.662875 107.354068 21.712875 105.456068 22.912875 103.454068 L 23.812875 102.404068 L 27.412875 97.154068 C 28.012875 96.756068 28.612875 96.280068 29.212875 95.729068 C 29.812875 95.180068 30.262875 94.604068 30.562875 94.004068 C 31.860875 92.905068 33.086875 91.829068 34.237875 90.779068 C 35.385875 89.729068 36.660875 88.506068 38.062875 87.104068 L 40.912875 84.554068 C 42.911875 82.855068 45.187875 81.305068 47.737875 79.904068 C 50.287875 78.505068 52.961875 76.956068 55.762875 75.254068 C 58.061875 74.054068 60.461875 73.105068 62.962875 72.404068 C 65.461875 71.706068 67.762875 71.106068 69.862875 70.604068 L 69.712875 70.604068 C 71.111875 70.206068 72.837875 69.929068 74.887875 69.779068 C 76.935875 69.629068 78.810875 69.606068 80.512875 69.704068 C 81.112875 69.906068 81.686875 70.004068 82.237875 70.004068 C 82.785875 70.004068 83.411875 70.105068 84.112875 70.304068 C 84.210875 70.304068 84.311875 70.379068 84.412875 70.529068 C 84.511875 70.679068 84.611875 70.754068 84.712875 70.754068 L 85.462875 70.754068 C 85.462875 70.855068 85.511875 70.956068 85.612875 71.054068 C 85.612875 71.155068 85.661875 71.204068 85.762875 71.204068 C 87.862875 71.504068 89.861875 72.756068 91.762875 74.954068 L 91.762875 75.404068 C 92.160875 76.405068 92.362875 76.805068 92.362875 76.604068 C 93.161875 78.305068 93.712875 79.956068 94.012875 81.554068 C 94.312875 83.155068 94.361875 84.704068 94.162875 86.204068 C 94.061875 88.604068 93.661875 91.004068 92.962875 93.404068 C 92.261875 95.804068 91.511875 98.005068 90.712875 100.004068 C 90.611875 100.505068 90.386875 101.180068 90.037875 102.029068 C 89.685875 102.880068 89.411875 103.506068 89.212875 103.904068 C 89.212875 104.405068 89.111875 104.905068 88.912875 105.404068 C 88.710875 105.905068 88.560875 106.405068 88.462875 106.904068 C 87.661875 109.004068 86.911875 110.930068 86.212875 112.679068 C 85.511875 114.430068 84.911875 115.904068 84.412875 117.104068 L 83.362875 120.704068 L 82.462875 121.904068 L 81.262875 124.304068 L 79.612875 128.354068 L 78.412875 131.654068 L 70.312875 150.404068 C 68.011875 156.205068 66.286875 160.881068 65.137875 164.429068 C 63.986875 167.980068 63.360875 170.578068 63.262875 172.229068 C 63.161875 173.879068 63.585875 174.704068 64.537875 174.704068 C 65.486875 174.704068 66.911875 174.104068 68.812875 172.905068 C 69.011875 172.805068 69.286875 172.731068 69.637875 172.679068 C 69.986875 172.629068 70.162875 172.356068 70.162875 171.854068 L 70.612875 171.704068 L 71.812875 170.505068 C 72.412875 169.706068 73.237875 168.906068 74.287875 168.105068 C 75.337875 167.306068 76.211875 166.507068 76.912875 165.705068 C 77.711875 164.407068 78.511875 163.381068 79.312875 162.631068 C 80.111875 161.881068 80.911875 160.606068 81.712875 158.806068 C 82.212875 158.607068 82.561875 158.356068 82.762875 158.056068 C 82.961875 157.756068 83.212875 157.456068 83.512875 157.156068 L 85.912875 153.106068 C 86.610875 152.206068 87.262875 151.282068 87.862875 150.331068 C 88.462875 149.382068 89.062875 148.456068 89.662875 147.556068 C 90.060875 146.858068 90.637875 145.906068 91.387875 144.706068 C 92.137875 143.506068 92.861875 142.231068 93.562875 140.881068 C 94.261875 139.531068 94.936875 138.233068 95.587875 136.981068 C 96.236875 135.731068 96.712875 134.806068 97.012875 134.206068 L 99.712875 129.556068 L 99.562875 129.556068 L 100.312875 127.006068 C 100.612875 125.307068 101.261875 123.833068 102.262875 122.581068 C 103.261875 121.332068 104.011875 119.806068 104.512875 118.006068 C 104.910875 117.307068 105.262875 116.632068 105.562875 115.981068 C 105.862875 115.332068 106.110875 114.757068 106.312875 114.256068 L 106.612875 113.506068 C 106.811875 113.307068 106.886875 113.182068 106.837875 113.131068 C 106.786875 113.082068 106.860875 112.606068 107.062875 111.706068 L 107.962875 110.206068 L 108.712875 108.256068 L 109.462875 106.906068 C 110.062875 105.807068 110.636875 104.532068 111.187875 103.081068 C 111.735875 101.633068 112.211875 99.957068 112.612875 98.056068 C 113.212875 97.456068 113.512875 97.006068 113.512875 96.706068 C 114.011875 95.206068 114.262875 94.508068 114.262875 94.606068 L 115.462875 93.856068 L 115.462875 92.503068 L 115.462875 92.503068 Z " fill="rgb(0,0,0)"/><path d=" M 175.611875 150.853068 C 174.610875 152.953068 173.736875 155.330068 172.986875 157.978068 C 172.236875 160.628068 171.861875 162.954068 171.861875 164.952068 C 171.861875 166.253068 172.060875 167.554068 172.461875 168.852068 C 172.660875 169.654068 173.211875 170.202068 174.111875 170.502068 C 175.011875 170.802068 175.860875 171.004068 176.661875 171.102068 C 177.261875 171.102068 178.086875 171.102068 179.136875 171.102068 C 180.186875 171.102068 181.060875 171.004068 181.761875 170.802068 C 185.961875 169.103068 190.161875 166.803068 194.361875 163.903068 C 196.360875 162.503068 198.385875 160.778068 200.436875 158.728068 C 202.484875 156.679068 204.486875 154.580068 206.436875 152.428068 C 208.386875 150.279068 210.209875 148.153068 211.911875 146.053068 C 213.610875 143.953068 215.110875 142.153068 216.411875 140.653068 C 216.711875 140.353068 217.110875 139.880068 217.611875 139.228068 C 218.110875 138.579068 218.635875 137.904068 219.186875 137.203068 C 219.734875 136.505068 220.259875 135.804068 220.761875 135.103068 C 221.261875 134.404068 221.661875 133.853068 221.961875 133.453068 C 222.359875 132.954068 222.685875 132.579068 222.936875 132.328068 C 223.184875 132.080068 223.611875 132.005068 224.211875 132.103068 C 224.211875 132.204068 224.234875 132.128068 224.286875 131.878068 C 224.335875 131.629068 224.411875 131.404068 224.511875 131.203068 C 224.610875 131.004068 224.736875 130.828068 224.886875 130.678068 C 225.036875 130.528068 225.210875 130.554068 225.411875 130.753068 C 225.809875 130.955068 226.210875 131.003068 226.611875 130.903068 C 226.710875 130.903068 226.860875 131.004068 227.061875 131.203068 C 227.260875 131.004068 227.710875 130.805068 228.411875 130.603068 C 229.110875 130.404068 229.559875 130.753068 229.761875 131.653068 C 229.761875 131.754068 229.810875 131.855068 229.911875 131.953068 L 230.211875 132.253068 C 230.309875 132.455068 230.410875 132.679068 230.511875 132.928068 C 230.610875 133.179068 230.560875 133.453068 230.361875 133.753068 C 230.560875 133.854068 230.710875 133.929068 230.811875 133.978068 C 230.909875 134.029068 231.059875 134.053068 231.261875 134.053068 L 228.261875 140.503068 C 228.261875 140.604068 228.360875 140.653068 228.561875 140.653068 C 228.760875 140.653068 228.809875 140.803068 228.711875 141.103068 C 227.909875 143.104068 227.009875 144.754068 226.011875 146.053068 C 223.311875 149.953068 220.110875 154.078068 216.411875 158.428068 C 212.710875 162.778068 208.735875 166.779068 204.486875 170.428068 C 200.235875 174.079068 195.809875 177.128068 191.211875 179.577068 C 186.610875 182.026068 182.061875 183.350068 177.561875 183.553068 C 176.860875 183.553068 175.611875 183.501068 173.811875 183.404068 C 172.011875 183.302068 170.710875 183.152068 169.911875 182.953068 C 168.711875 182.752068 167.511875 182.377068 166.311875 181.828068 C 165.111875 181.277068 164.110875 180.605068 163.311875 179.804068 C 162.509875 179.106068 161.759875 178.254068 161.061875 177.254068 C 160.362875 176.256068 159.762875 175.205068 159.261875 174.104068 C 159.062875 173.706068 158.938875 173.280068 158.886875 172.829068 C 158.837875 172.380068 158.713875 172.005068 158.511875 171.704068 C 158.113875 170.505068 157.862875 169.305068 157.761875 168.104068 C 157.663875 166.905068 157.663875 165.655068 157.761875 164.354068 C 157.963875 163.855068 158.061875 162.955068 158.061875 161.654068 C 158.162875 160.855068 158.262875 160.079068 158.361875 159.329068 C 158.462875 158.579068 158.612875 157.806068 158.811875 157.004068 C 159.012875 156.404068 159.163875 155.729068 159.261875 154.979068 C 159.362875 154.229068 159.512875 153.554068 159.711875 152.954068 L 161.811875 145.454068 C 163.709875 141.156068 165.809875 136.979068 168.111875 132.929068 C 170.410875 128.879068 172.986875 125.155068 175.836875 121.754068 C 178.686875 118.356068 181.810875 115.454068 185.211875 113.054068 C 188.609875 110.654068 192.411875 108.955068 196.611875 107.954068 C 197.710875 107.856068 199.034875 107.905068 200.586875 108.104068 C 202.135875 108.305068 203.260875 108.805068 203.961875 109.604068 C 204.760875 109.904068 205.409875 110.455068 205.911875 111.254068 C 207.411875 112.956068 208.260875 114.905068 208.461875 117.104068 C 208.761875 118.304068 208.859875 119.455068 208.761875 120.554068 C 208.660875 121.656068 208.461875 122.905068 208.161875 124.304068 C 207.761875 124.705068 207.561875 125.106068 207.561875 125.504068 C 205.360875 131.204068 202.836875 136.180068 199.986875 140.429068 C 197.136875 144.680068 193.161875 148.555068 188.061875 152.054068 C 186.959875 152.755068 185.834875 153.231068 184.686875 153.479068 C 183.535875 153.729068 182.009875 153.755068 180.111875 153.554068 C 180.010875 153.554068 179.909875 153.531068 179.811875 153.479068 C 179.710875 153.430068 179.560875 153.404068 179.361875 153.404068 C 179.159875 153.404068 179.085875 153.381068 179.136875 153.329068 C 179.185875 153.280068 179.110875 153.156068 178.911875 152.954068 C 178.311875 152.856068 177.786875 152.530068 177.336875 151.979068 C 176.886875 151.430068 176.410875 151.055068 175.911875 150.854068 L 175.611875 150.854068 L 175.611875 150.853068 Z  M 179.511875 140.953068 C 179.610875 141.354068 179.661875 141.579068 179.661875 141.628068 C 179.661875 141.679068 179.684875 141.679068 179.736875 141.628068 C 179.785875 141.579068 179.835875 141.553068 179.886875 141.553068 C 179.935875 141.553068 180.059875 141.703068 180.261875 142.003068 C 180.360875 142.003068 180.460875 141.980068 180.561875 141.928068 C 180.659875 141.879068 180.809875 141.853068 181.011875 141.853068 L 181.461875 141.853068 C 184.559875 140.753068 187.109875 138.853068 189.111875 136.153068 C 191.110875 133.453068 192.910875 130.804068 194.511875 128.203068 C 195.011875 127.404068 195.336875 126.703068 195.486875 126.103068 C 195.636875 125.503068 195.910875 124.903068 196.311875 124.303068 C 196.409875 124.003068 196.461875 123.654068 196.461875 123.253068 C 196.461875 122.855068 196.386875 122.454068 196.236875 122.053068 C 196.086875 121.655068 195.835875 121.404068 195.486875 121.303068 C 195.134875 121.205068 194.610875 121.303068 193.911875 121.603068 C 192.809875 122.304068 191.961875 122.878068 191.361875 123.328068 C 190.761875 123.778068 190.060875 124.453068 189.261875 125.353068 C 187.559875 127.153068 186.360875 128.503068 185.661875 129.403068 C 184.960875 130.303068 184.410875 131.029068 184.011875 131.578068 C 183.610875 132.129068 183.235875 132.703068 182.886875 133.303068 C 182.534875 133.903068 181.911875 134.803068 181.011875 136.003068 C 180.711875 136.205068 180.486875 136.580068 180.336875 137.128068 C 180.186875 137.679068 180.010875 138.054068 179.811875 138.253068 C 179.811875 138.553068 179.759875 138.830068 179.661875 139.078068 C 179.560875 139.329068 179.560875 139.655068 179.661875 140.053068 C 179.661875 139.854068 179.636875 139.903068 179.586875 140.203068 C 179.534875 140.503068 179.511875 140.754068 179.511875 140.953068 Z  M 227.061875 131.503068 C 227.061875 131.705068 227.110875 131.705068 227.211875 131.503068 L 227.061875 131.503068 Z " fill="rgb(0,0,0)"/><path d=" M 234.259875 104.203068 C 233.959875 104.304068 233.383875 104.428068 232.534875 104.578068 C 231.683875 104.728068 230.809875 104.855068 229.909875 104.953068 C 229.009875 105.054068 228.184875 105.155068 227.434875 105.253068 C 226.684875 105.354068 226.208875 105.403068 226.009875 105.403068 C 224.509875 105.804068 223.283875 106.130068 222.334875 106.378068 C 221.383875 106.628068 220.558875 106.779068 219.859875 106.828068 C 219.158875 106.880068 218.509875 106.854068 217.909875 106.753068 C 217.309875 106.654068 216.658875 106.453068 215.959875 106.153068 C 215.458875 105.954068 215.033875 105.553068 214.684875 104.953068 C 214.332875 104.353068 214.009875 103.805068 213.709875 103.303068 C 213.309875 102.905068 213.109875 102.478068 213.109875 102.028068 C 213.109875 101.578068 213.008875 101.053068 212.809875 100.453068 L 212.659875 100.303068 C 212.659875 100.003068 212.708875 99.654068 212.809875 99.253068 C 213.409875 98.254068 213.908875 97.355068 214.309875 96.553068 C 214.508875 96.155068 214.933875 95.754068 215.584875 95.353068 C 216.233875 94.955068 216.758875 94.753068 217.159875 94.753068 C 217.857875 94.453068 218.533875 94.279068 219.184875 94.228068 C 219.833875 94.179068 220.408875 94.153068 220.909875 94.153068 C 223.508875 94.054068 225.582875 93.928068 227.134875 93.778068 C 228.683875 93.628068 230.258875 93.504068 231.859875 93.403068 C 232.958875 93.204068 233.783875 93.054068 234.334875 92.953068 C 234.883875 92.855068 235.759875 92.803068 236.959875 92.803068 C 237.357875 92.803068 237.684875 92.754068 237.934875 92.653068 C 238.183875 92.554068 238.508875 92.503068 238.909875 92.503068 C 239.408875 92.503068 239.783875 92.229068 240.034875 91.678068 C 240.283875 91.130068 240.508875 90.605068 240.709875 90.103068 C 240.908875 89.404068 241.183875 88.729068 241.534875 88.078068 C 241.883875 87.429068 242.158875 86.754068 242.359875 86.053068 C 242.558875 85.254068 242.907875 84.455068 243.409875 83.653068 C 243.908875 82.854068 244.107875 82.003068 244.009875 81.103068 C 244.009875 80.603068 244.283875 80.053068 244.834875 79.453068 C 245.383875 78.853068 245.758875 78.305068 245.959875 77.803068 C 246.259875 77.405068 246.559875 77.203068 246.859875 77.203068 C 247.459875 76.805068 247.909875 76.453068 248.209875 76.153068 C 248.509875 75.853068 248.809875 75.628068 249.109875 75.478068 C 249.409875 75.328068 249.758875 75.279068 250.159875 75.328068 C 250.557875 75.380068 251.108875 75.504068 251.809875 75.703068 C 252.608875 76.003068 253.183875 76.303068 253.534875 76.603068 C 253.883875 76.903068 254.307875 77.304068 254.809875 77.803068 C 255.207875 78.204068 255.533875 78.679068 255.784875 79.228068 C 256.033875 79.779068 256.258875 80.304068 256.459875 80.803068 C 256.658875 81.304068 256.733875 81.879068 256.684875 82.528068 C 256.633875 83.179068 256.558875 83.855068 256.459875 84.553068 C 256.358875 84.755068 256.183875 85.153068 255.934875 85.753068 C 255.684875 86.353068 255.433875 86.979068 255.184875 87.628068 C 254.934875 88.279068 254.708875 88.903068 254.509875 89.503068 C 254.307875 90.103068 254.209875 90.553068 254.209875 90.853068 C 254.509875 90.853068 254.809875 90.830068 255.109875 90.778068 C 255.409875 90.729068 255.657875 90.703068 255.859875 90.703068 C 257.558875 90.403068 258.859875 90.230068 259.759875 90.178068 C 260.659875 90.129068 261.957875 90.005068 263.659875 89.803068 C 263.959875 89.803068 264.409875 89.754068 265.009875 89.653068 C 265.609875 89.554068 266.232875 89.428068 266.884875 89.278068 C 267.533875 89.128068 268.133875 88.978068 268.684875 88.828068 C 269.232875 88.678068 269.607875 88.603068 269.809875 88.603068 L 270.409875 88.603068 C 271.309875 88.804068 272.184875 88.753068 273.034875 88.453068 C 273.884875 88.153068 274.760875 88.003068 275.659875 88.003068 C 276.358875 88.003068 277.010875 87.954068 277.610875 87.853068 C 278.210875 87.754068 278.758875 87.804068 279.259875 88.003068 C 279.657875 88.205068 280.059875 88.253068 280.459875 88.153068 C 280.857875 88.054068 281.307875 88.104068 281.809875 88.303068 C 282.008875 88.404068 282.283875 88.453068 282.634875 88.453068 C 282.983875 88.453068 283.258875 88.505068 283.459875 88.603068 C 283.658875 88.903068 283.883875 88.929068 284.134875 88.678068 C 284.383875 88.429068 284.608875 88.404068 284.809875 88.603068 C 285.110875 88.704068 285.309875 88.955068 285.409875 89.353068 L 286.460875 90.703068 C 286.558875 91.205068 286.435875 91.479068 286.085875 91.528068 C 285.733875 91.580068 285.459875 91.704068 285.260875 91.903068 C 285.359875 92.203068 285.635875 92.679068 286.085875 93.328068 C 286.534875 93.980068 286.760875 94.505068 286.760875 94.903068 C 286.460875 94.903068 286.259875 95.004068 286.159875 95.203068 C 286.059875 95.405068 285.759875 95.555068 285.260875 95.653068 C 285.058875 95.953068 285.058875 96.253068 285.260875 96.553068 C 285.459875 96.853068 285.310875 97.054068 284.810875 97.153068 C 284.609875 97.153068 284.259875 97.279068 283.760875 97.528068 C 283.259875 97.779068 283.060875 98.053068 283.159875 98.353068 C 282.658875 98.753068 282.110875 98.978068 281.510875 99.028068 C 280.909875 99.080068 280.259875 99.154068 279.560875 99.253068 C 279.160875 99.354068 278.435875 99.379068 277.385875 99.328068 C 276.335875 99.279068 275.709875 99.403068 275.510875 99.703068 C 275.308875 99.804068 275.109875 99.853068 274.909875 99.853068 C 274.708875 99.853068 274.509875 99.853068 274.309875 99.853068 C 273.807875 99.954068 272.983875 100.054068 271.834875 100.153068 C 270.683875 100.254068 269.509875 100.355068 268.309875 100.453068 C 267.109875 100.554068 265.984875 100.655068 264.934875 100.753068 C 263.884875 100.854068 263.209875 100.955068 262.909875 101.053068 C 261.908875 101.353068 260.682875 101.480068 259.234875 101.428068 C 257.783875 101.379068 255.957875 101.653068 253.759875 102.253068 C 252.657875 102.455068 251.907875 102.503068 251.509875 102.403068 C 251.108875 102.304068 250.658875 102.703068 250.159875 103.603068 C 249.859875 104.203068 249.184875 105.503068 248.134875 107.503068 C 247.084875 109.504068 245.959875 111.605068 244.759875 113.803068 C 243.559875 116.004068 242.408875 118.078068 241.309875 120.028068 C 240.207875 121.978068 239.509875 123.253068 239.209875 123.853068 C 238.809875 124.753068 238.558875 125.330068 238.459875 125.578068 C 238.358875 125.829068 238.283875 126.005068 238.234875 126.103068 C 238.182875 126.204068 238.084875 126.379068 237.934875 126.628068 C 237.784875 126.878068 237.458875 127.404068 236.959875 128.203068 C 235.459875 131.604068 234.309875 134.154068 233.509875 135.853068 C 232.707875 137.554068 232.058875 138.979068 231.559875 140.128068 C 231.058875 141.279068 230.607875 142.429068 230.209875 143.578068 C 229.809875 144.729068 229.209875 146.405068 228.409875 148.603068 C 227.607875 151.003068 226.883875 153.128068 226.234875 154.978068 C 225.582875 156.830068 225.008875 159.004068 224.509875 161.503068 C 224.209875 162.304068 224.033875 162.954068 223.984875 163.453068 C 223.932875 163.954068 223.958875 164.753068 224.059875 165.853068 C 224.059875 166.955068 224.209875 167.728068 224.509875 168.178068 C 224.809875 168.628068 225.233875 168.878068 225.784875 168.928068 C 226.332875 168.980068 226.883875 168.928068 227.434875 168.779068 C 227.982875 168.629068 228.508875 168.455068 229.009875 168.254068 C 232.107875 166.055068 234.807875 163.805068 237.109875 161.504068 C 239.408875 159.205068 241.583875 156.779068 243.634875 154.229068 C 245.682875 151.679068 247.782875 148.956068 249.934875 146.054068 C 252.083875 143.155068 254.659875 139.956068 257.659875 136.454068 C 257.758875 136.255068 257.884875 136.079068 258.034875 135.929068 C 258.184875 135.779068 258.357875 135.606068 258.559875 135.404068 C 259.059875 134.706068 259.482875 134.054068 259.834875 133.454068 C 260.184875 132.854068 260.908875 132.355068 262.009875 131.954068 C 262.208875 131.954068 262.407875 131.879068 262.609875 131.729068 C 262.808875 131.579068 263.059875 131.405068 263.359875 131.204068 C 263.558875 131.305068 263.659875 131.429068 263.659875 131.579068 C 263.659875 131.729068 263.708875 131.856068 263.809875 131.954068 C 264.008875 131.856068 264.133875 131.706068 264.184875 131.504068 C 264.233875 131.305068 264.283875 131.129068 264.334875 130.979068 C 264.383875 130.829068 264.484875 130.780068 264.634875 130.829068 C 264.784875 130.881068 265.009875 131.054068 265.309875 131.354068 C 265.309875 131.455068 265.283875 131.729068 265.234875 132.179068 C 265.182875 132.629068 265.257875 132.756068 265.459875 132.554068 C 265.658875 132.554068 265.609875 132.655068 265.309875 132.854068 C 265.009875 133.055068 265.059875 133.104068 265.459875 133.004068 C 265.959875 132.905068 266.033875 132.955068 265.684875 133.154068 C 265.332875 133.356068 265.258875 133.855068 265.459875 134.654068 C 266.359875 134.856068 266.607875 135.305068 266.209875 136.004068 C 266.108875 136.405068 266.232875 136.705068 266.584875 136.904068 C 266.934875 137.106068 267.008875 137.405068 266.809875 137.804068 C 266.708875 138.006068 266.683875 138.280068 266.734875 138.629068 C 266.783875 138.981068 266.708875 139.356068 266.509875 139.754068 L 266.659875 139.754068 L 266.959875 140.054068 C 266.858875 140.555068 266.709875 141.081068 266.509875 141.629068 C 266.307875 142.180068 265.958875 142.655068 265.459875 143.054068 C 265.258875 143.256068 265.133875 143.455068 265.084875 143.654068 C 265.033875 143.856068 264.908875 144.055068 264.709875 144.254068 C 264.508875 144.854068 263.934875 145.805068 262.984875 147.104068 C 262.032875 148.405068 261.008875 149.754068 259.909875 151.154068 C 258.807875 152.555068 257.734875 153.880068 256.684875 155.129068 C 255.634875 156.380068 254.908875 157.254068 254.509875 157.754068 C 253.309875 159.456068 251.532875 161.729068 249.184875 164.578068 C 246.833875 167.429068 244.159875 170.256068 241.159875 173.054068 C 238.159875 175.855068 235.009875 178.356068 231.709875 180.554068 C 228.409875 182.752068 225.208875 184.004068 222.109875 184.304068 C 221.307875 184.403068 220.309875 184.453068 219.109875 184.453068 C 217.909875 184.453068 217.009875 184.203068 216.409875 183.703068 C 216.109875 183.404068 215.607875 183.152068 214.909875 182.953068 C 213.508875 182.152068 212.434875 181.078068 211.684875 179.728068 C 210.934875 178.378068 210.461875 177.005068 210.259875 175.603068 C 209.861875 173.405068 209.734875 171.580068 209.884875 170.128068 C 210.034875 168.679068 210.210875 166.903068 210.409875 164.803068 C 210.709875 162.005068 211.309875 158.728068 212.209875 154.978068 C 213.109875 151.228068 214.009875 148.003068 214.909875 145.303068 C 215.408875 144.005068 215.758875 143.004068 215.959875 142.303068 C 216.158875 141.605068 216.357875 140.979068 216.559875 140.428068 C 216.758875 139.880068 216.983875 139.280068 217.234875 138.628068 C 217.482875 137.979068 217.857875 137.003068 218.359875 135.703068 C 219.057875 134.105068 219.484875 133.153068 219.634875 132.853068 C 219.784875 132.553068 219.934875 132.279068 220.084875 132.028068 C 220.234875 131.779068 220.482875 131.278068 220.834875 130.528068 C 221.184875 129.778068 221.908875 128.203068 223.009875 125.803068 L 233.809875 105.403068 C 233.908875 105.304068 233.959875 105.178068 233.959875 105.028068 C 233.959875 104.878068 234.057875 104.604068 234.259875 104.203068 Z  M 265.309875 131.353068 C 265.309875 131.254068 265.332875 131.203068 265.384875 131.203068 C 265.433875 131.203068 265.459875 131.255068 265.459875 131.353068 L 265.309875 131.353068 Z " fill="rgb(0,0,0)"/><path d=" M 315.408875 136.753068 C 315.607875 136.955068 316.057875 137.029068 316.758875 136.978068 C 317.457875 136.929068 317.906875 137.003068 318.109875 137.203068 C 318.608875 137.004068 318.934875 137.030068 319.085875 137.278068 C 319.234875 137.529068 319.407875 137.754068 319.609875 137.953068 C 319.808875 138.654068 319.909875 139.153068 319.909875 139.453068 C 319.909875 139.753068 320.108875 140.004068 320.509875 140.203068 C 320.810875 140.405068 320.810875 140.604068 320.509875 140.803068 C 320.210875 141.005068 320.109875 141.204068 320.210875 141.403068 C 320.308875 142.104068 320.409875 142.629068 320.509875 142.978068 C 320.609875 143.330068 320.559875 143.753068 320.360875 144.253068 C 319.959875 145.153068 319.610875 146.003068 319.310875 146.803068 C 319.009875 147.605068 318.609875 148.404068 318.110875 149.203068 C 317.609875 149.904068 317.109875 150.628068 316.610875 151.378068 C 316.109875 152.128068 315.609875 152.904068 315.110875 153.703068 C 314.908875 154.104068 314.509875 154.704068 313.910875 155.503068 C 313.310875 156.304068 312.658875 157.153068 311.961875 158.053068 C 311.260875 158.953068 310.610875 159.804068 310.010875 160.603068 C 309.410875 161.404068 309.010875 162.004068 308.811875 162.403068 C 308.110875 163.303068 307.510875 164.053068 307.010875 164.653068 C 306.509875 165.253068 306.035875 165.829068 305.586875 166.378068 C 305.135875 166.929068 304.634875 167.454068 304.086875 167.952068 C 303.535875 168.454068 302.908875 169.054068 302.211875 169.753068 C 301.810875 170.153068 301.435875 170.577068 301.086875 171.028068 C 300.734875 171.477068 300.359875 171.852068 299.961875 172.153068 C 298.660875 173.255068 297.509875 174.303068 296.510875 175.302068 C 295.510875 176.303068 294.360875 177.353068 293.061875 178.451068 C 292.461875 178.852068 291.911875 179.303068 291.411875 179.802068 C 290.909875 180.303068 290.261875 180.701068 289.462875 181.002068 C 288.659875 181.602068 287.909875 182.127068 287.212875 182.576068 C 286.511875 183.027068 285.712875 183.451068 284.812875 183.851068 C 284.212875 184.152068 283.736875 184.376068 283.386875 184.527068 C 283.034875 184.676068 282.712875 184.826068 282.411875 184.976068 C 282.111875 185.126068 281.760875 185.277068 281.361875 185.426068 C 280.960875 185.575068 280.360875 185.801068 279.561875 186.101068 C 275.459875 186.800068 272.384875 186.499068 270.336875 185.201068 C 268.285875 183.900068 266.609875 181.902068 265.311875 179.201068 C 264.810875 176.602068 264.711875 173.977068 265.011875 171.326068 C 265.311875 168.678068 265.911875 166.203068 266.811875 163.902068 C 267.310875 162.402068 267.835875 160.953068 268.386875 159.551068 C 268.935875 158.152068 269.610875 156.753068 270.411875 155.351068 C 271.011875 154.251068 271.510875 153.202068 271.911875 152.201068 C 272.710875 150.202068 273.460875 148.627068 274.161875 147.476068 C 274.860875 146.328068 275.661875 144.851068 276.561875 143.051068 C 277.559875 141.652068 278.411875 140.328068 279.111875 139.076068 C 279.809875 137.827068 280.611875 136.451068 281.510875 134.951068 C 281.709875 134.351068 282.360875 133.428068 283.461875 132.176068 C 284.560875 130.927068 285.509875 129.776068 286.311875 128.726068 C 287.110875 127.676068 287.510875 126.902068 287.510875 126.401068 C 287.510875 125.902068 286.559875 126.101068 284.660875 127.001068 C 284.060875 127.203068 283.310875 127.477068 282.410875 127.826068 C 281.510875 128.178068 280.584875 128.527068 279.635875 128.876068 C 278.684875 129.228068 277.783875 129.527068 276.936875 129.776068 C 276.084875 130.027068 275.411875 130.151068 274.911875 130.151068 C 274.611875 130.252068 274.386875 130.402068 274.236875 130.601068 C 274.087875 130.802068 273.911875 131.051068 273.712875 131.351068 C 272.110875 133.953068 270.536875 136.376068 268.986875 138.626068 C 267.435875 140.876068 265.810875 143.402068 264.111875 146.201068 C 263.310875 147.101068 262.510875 147.828068 261.711875 148.376068 C 260.909875 148.927068 259.911875 149.152068 258.711875 149.051068 L 257.961875 149.051068 C 257.661875 149.051068 257.310875 148.953068 256.911875 148.751068 C 256.611875 148.552068 256.334875 148.226068 256.086875 147.776068 C 255.835875 147.326068 255.460875 146.902068 254.961875 146.501068 C 254.759875 146.402068 254.710875 146.276068 254.811875 146.126068 C 254.909875 145.976068 254.909875 145.802068 254.811875 145.601068 C 254.710875 145.402068 254.736875 145.226068 254.886875 145.076068 C 255.036875 144.926068 255.011875 144.802068 254.811875 144.701068 C 255.010875 144.502068 255.036875 144.202068 254.886875 143.801068 C 254.736875 143.403068 254.760875 143.051068 254.961875 142.751068 C 255.160875 142.552068 255.385875 142.327068 255.636875 142.076068 C 255.885875 141.828068 255.910875 141.502068 255.711875 141.101068 C 255.810875 141.002068 256.011875 140.677068 256.311875 140.126068 C 256.611875 139.578068 256.960875 138.926068 257.361875 138.176068 C 257.759875 137.426068 258.134875 136.702068 258.486875 136.001068 C 258.835875 135.302068 259.110875 134.801068 259.311875 134.501068 C 259.810875 133.502068 260.234875 132.701068 260.586875 132.101068 C 260.935875 131.501068 261.235875 130.976068 261.486875 130.526068 C 261.735875 130.076068 261.810875 129.851068 261.711875 129.851068 C 261.509875 129.752068 261.186875 129.776068 260.736875 129.926068 C 260.286875 130.076068 260.061875 130.052068 260.061875 129.851068 C 258.959875 130.151068 257.560875 129.926068 255.861875 129.176068 C 254.159875 128.426068 253.060875 127.751068 252.561875 127.151068 C 252.359875 126.652068 251.984875 125.951068 251.436875 125.051068 C 250.885875 124.151068 250.611875 123.401068 250.611875 122.801068 C 250.412875 121.802068 250.412875 120.652068 250.611875 119.351068 C 250.810875 118.052068 251.159875 116.852068 251.661875 115.751068 C 252.059875 114.952068 252.385875 114.326068 252.636875 113.876068 C 252.885875 113.426068 253.110875 113.051068 253.311875 112.751068 C 253.510875 112.451068 253.761875 112.102068 254.061875 111.701068 C 254.361875 111.303068 254.759875 110.703068 255.261875 109.901068 C 256.361875 108.802068 257.261875 108.101068 257.961875 107.801068 C 258.659875 107.501068 259.660875 106.901068 260.961875 106.001068 C 261.261875 105.902068 261.610875 105.828068 262.011875 105.776068 C 262.409875 105.727068 262.761875 105.502068 263.061875 105.101068 C 265.560875 104.402068 267.861875 104.102068 269.961875 104.201068 C 272.061875 104.302068 273.760875 104.827068 275.061875 105.776068 C 276.360875 106.728068 277.161875 108.078068 277.461875 109.826068 C 277.760875 111.577068 277.408875 113.703068 276.410875 116.201068 L 276.260875 116.351068 C 276.160875 116.351068 276.111875 116.402068 276.111875 116.501068 C 276.310875 116.801068 276.561875 116.951068 276.861875 116.951068 C 277.462875 116.853068 278.811875 116.351068 280.911875 115.451068 C 283.011875 114.551068 285.310875 113.703068 287.811875 112.901068 C 290.309875 112.102068 292.686875 111.476068 294.936875 111.026068 C 297.186875 110.576068 298.760875 110.651068 299.661875 111.251068 C 300.261875 111.752068 300.835875 112.177068 301.386875 112.526068 C 301.935875 112.878068 302.411875 113.328068 302.812875 113.876068 C 303.210875 114.427068 303.510875 115.076068 303.712875 115.826068 C 303.911875 116.576068 304.011875 117.551068 304.011875 118.751068 L 304.011875 120.401068 C 303.810875 122.602068 303.187875 124.702068 302.136875 126.701068 C 301.087875 128.703068 300.011875 130.601068 298.911875 132.401068 C 298.011875 134.302068 296.610875 136.427068 294.712875 138.776068 C 292.811875 141.127068 291.261875 143.351068 290.062875 145.451068 C 289.662875 146.152068 289.361875 146.726068 289.162875 147.176068 C 288.961875 147.626068 288.762875 148.052068 288.562875 148.451068 C 288.361875 148.852068 288.135875 149.276068 287.886875 149.726068 C 287.636875 150.176068 287.310875 150.752068 286.911875 151.451068 C 286.311875 152.553068 285.761875 153.551068 285.261875 154.451068 C 284.760875 155.351068 284.261875 156.303068 283.761875 157.301068 C 283.260875 158.302068 282.736875 159.401068 282.187875 160.601068 C 281.636875 161.801068 281.062875 163.301068 280.462875 165.101068 C 279.360875 167.302068 278.962875 168.851068 279.261875 169.751068 C 279.562875 170.651068 280.185875 171.126068 281.136875 171.176068 C 282.085875 171.228068 283.237875 170.927068 284.587875 170.277068 C 285.937875 169.627068 287.062875 168.802068 287.962875 167.801068 C 288.861875 167.001068 289.935875 166.001068 291.187875 164.801068 C 292.436875 163.601068 293.662875 162.352068 294.862875 161.051068 C 296.062875 159.753068 297.187875 158.501068 298.237875 157.301068 C 299.287875 156.101068 300.060875 155.051068 300.562875 154.151068 C 301.560875 152.951068 302.835875 151.327068 304.386875 149.276068 C 305.936875 147.228068 307.260875 145.503068 308.362875 144.101068 C 309.162875 143.302068 310.035875 142.277068 310.987875 141.026068 C 311.936875 139.777068 312.810875 138.802068 313.612875 138.101068 C 314.010875 137.501068 314.310875 137.152068 314.511875 137.051068 C 314.707875 136.854068 315.008875 136.753068 315.408875 136.753068 Z  M 266.359875 113.953068 C 266.059875 113.855068 265.734875 113.679068 265.384875 113.428068 C 265.032875 113.179068 264.508875 113.554068 263.809875 114.553068 C 263.209875 115.153068 262.933875 115.453068 262.984875 115.453068 C 263.033875 115.453068 262.858875 115.955068 262.459875 116.953068 C 262.058875 117.755068 261.882875 118.355068 261.934875 118.753068 C 261.983875 119.154068 262.159875 119.454068 262.459875 119.653068 C 262.759875 119.855068 263.134875 119.953068 263.584875 119.953068 C 264.034875 119.953068 264.409875 119.953068 264.709875 119.953068 C 265.407875 118.554068 265.984875 117.230068 266.434875 115.978068 C 266.883875 114.729068 266.858875 114.054068 266.359875 113.953068 Z " fill="rgb(0,0,0)"/><path d=" M 327.109875 119.353068 C 327.507875 119.454068 327.958875 119.603068 328.460875 119.803068 C 328.958875 120.005068 329.409875 120.155068 329.810875 120.253068 C 330.208875 120.253068 330.560875 120.503068 330.860875 121.003068 C 331.059875 121.504068 331.334875 122.003068 331.685875 122.503068 C 332.035875 123.004068 332.360875 123.503068 332.660875 124.003068 C 332.961875 124.804068 333.010875 125.604068 332.810875 126.403068 C 332.609875 127.205068 332.458875 128.004068 332.360875 128.803068 C 331.558875 132.304068 330.384875 135.679068 328.836875 138.928068 C 327.283875 142.179068 325.686875 145.329068 324.035875 148.378068 C 322.385875 151.429068 320.859875 154.429068 319.461875 157.378068 C 318.059875 160.329068 317.109875 163.303068 316.610875 166.303068 C 316.408875 167.304068 316.584875 168.054068 317.134875 168.553068 C 317.683875 169.054068 318.508875 169.104068 319.610875 168.702068 C 320.410875 168.304068 320.859875 168.005068 320.961875 167.803068 C 321.059875 167.604068 321.509875 167.353068 322.311875 167.053068 C 324.209875 165.853068 326.309875 164.154068 328.611875 161.953068 C 330.911875 159.755068 332.860875 157.805068 334.462875 156.103068 C 335.159875 155.404068 336.135875 154.279068 337.386875 152.728068 C 338.636875 151.179068 339.885875 149.529068 341.136875 147.778068 C 342.386875 146.029068 343.612875 144.328068 344.812875 142.678068 C 346.011875 141.028068 347.010875 139.753068 347.812875 138.853068 C 348.011875 138.353068 348.285875 137.878068 348.636875 137.428068 C 348.986875 136.978068 349.361875 136.404068 349.761875 135.703068 C 350.460875 135.305068 350.737875 134.953068 350.587875 134.653068 C 350.437875 134.353068 350.511875 134.004068 350.812875 133.603068 C 350.910875 133.704068 351.060875 133.704068 351.261875 133.603068 C 351.659875 133.404068 351.712875 133.303068 351.411875 133.303068 C 351.111875 133.303068 351.011875 133.254068 351.111875 133.153068 L 351.861875 132.403068 C 352.060875 132.204068 352.485875 131.754068 353.135875 131.053068 C 353.785875 130.355068 354.209875 130.054068 354.410875 130.153068 C 354.910875 130.054068 355.235875 130.104068 355.385875 130.303068 C 355.535875 130.505068 355.760875 130.753068 356.061875 131.053068 C 356.459875 130.655068 356.709875 130.655068 356.811875 131.053068 C 356.909875 131.454068 357.411875 131.705068 358.311875 131.803068 C 358.611875 131.203068 358.959875 130.753068 359.361875 130.453068 C 359.361875 130.655068 359.411875 130.753068 359.510875 130.753068 L 359.660875 130.753068 L 359.060875 133.003068 C 359.158875 133.303068 359.210875 133.654068 359.210875 134.053068 C 359.708875 133.854068 359.907875 133.678068 359.810875 133.528068 C 359.708875 133.378068 359.960875 133.205068 360.560875 133.003068 C 360.458875 133.404068 360.359875 133.678068 360.259875 133.828068 C 360.159875 133.978068 360.110875 134.255068 360.110875 134.653068 C 360.309875 135.054068 360.359875 135.328068 360.259875 135.478068 C 360.159875 135.628068 360.208875 135.804068 360.409875 136.003068 C 360.208875 136.603068 360.009875 137.203068 359.809875 137.803068 C 359.608875 138.403068 359.409875 138.954068 359.209875 139.453068 C 358.908875 140.053068 358.433875 140.930068 357.783875 142.078068 C 357.132875 143.229068 356.433875 144.455068 355.683875 145.753068 C 354.933875 147.054068 354.206875 148.279068 353.507875 149.428068 C 352.807875 150.579068 352.256875 151.453068 351.858875 152.053068 C 351.457875 152.554068 350.932875 153.253068 350.283875 154.153068 C 349.632875 155.053068 348.957875 156.028068 348.258875 157.078068 C 347.558875 158.128068 346.858875 159.129068 346.158875 160.078068 C 345.457875 161.030068 344.808875 161.803068 344.209875 162.403068 C 342.908875 163.804068 341.982875 164.829068 341.434875 165.478068 C 340.883875 166.130068 340.433875 166.678068 340.084875 167.128068 C 339.732875 167.577068 339.334875 168.079068 338.883875 168.628068 C 338.434875 169.179068 337.707875 170.003068 336.709875 171.103068 C 335.007875 172.505068 333.207875 173.929068 331.309875 175.378068 C 329.409875 176.829068 327.457875 178.130068 325.459875 179.278068 C 323.457875 180.428068 321.357875 181.352068 319.158875 182.052068 C 316.957875 182.750068 314.757875 183.051068 312.558875 182.951068 C 308.958875 182.851068 306.384875 181.876068 304.833875 180.027068 C 303.283875 178.177068 302.384875 175.927068 302.132875 173.277068 C 301.884875 170.629068 302.058875 167.877068 302.657875 165.027068 C 303.257875 162.176068 303.857875 159.701068 304.458875 157.602068 C 304.858875 156.402068 305.132875 155.628068 305.282875 155.277068 C 305.432875 154.928068 305.559875 154.677068 305.657875 154.527068 C 305.759875 154.377068 305.882875 154.204068 306.032875 154.002068 C 306.182875 153.803068 306.407875 153.252068 306.708875 152.352068 C 307.007875 151.553068 307.206875 150.753068 307.308875 149.952068 C 307.406875 149.153068 307.706875 148.403068 308.208875 147.702068 C 308.606875 147.004068 308.856875 146.502068 308.958875 146.202068 C 309.056875 145.902068 309.131875 145.628068 309.183875 145.377068 C 309.232875 145.128068 309.333875 144.803068 309.483875 144.402068 C 309.632875 144.004068 309.957875 143.254068 310.459875 142.152068 L 313.008875 136.452068 C 314.408875 132.953068 315.633875 130.253068 316.684875 128.352068 C 317.734875 126.454068 318.859875 124.703068 320.059875 123.102068 C 320.258875 122.704068 320.558875 122.303068 320.959875 121.902068 C 321.357875 121.504068 321.656875 121.204068 321.858875 121.002068 C 321.957875 120.903068 322.158875 120.604068 322.459875 120.102068 C 322.758875 119.903068 323.059875 119.778068 323.358875 119.727068 C 323.658875 119.678068 323.906875 119.652068 324.108875 119.652068 C 324.806875 119.652068 325.283875 119.652068 325.533875 119.652068 C 325.781875 119.653068 326.307875 119.555068 327.109875 119.353068 Z  M 332.059875 116.953068 C 331.257875 117.054068 330.582875 117.080068 330.034875 117.028068 C 329.483875 116.979068 328.858875 116.705068 328.159875 116.203068 C 327.358875 116.004068 326.682875 115.580068 326.134875 114.928068 C 325.583875 114.279068 325.208875 113.604068 325.009875 112.903068 C 324.808875 112.205068 324.710875 111.529068 324.710875 110.878068 C 324.710875 110.229068 324.657875 109.603068 324.560875 109.003068 C 324.560875 108.304068 324.808875 107.604068 325.310875 106.903068 C 325.509875 106.404068 325.859875 105.928068 326.360875 105.478068 C 326.859875 105.028068 327.410875 104.554068 328.009875 104.053068 C 328.208875 104.053068 328.359875 104.004068 328.460875 103.903068 C 328.558875 103.804068 328.759875 103.704068 329.060875 103.603068 C 330.160875 103.303068 331.208875 103.054068 332.210875 102.853068 C 333.208875 102.654068 334.358875 102.604068 335.659875 102.703068 C 337.358875 103.104068 338.634875 104.203068 339.484875 106.003068 C 340.333875 107.803068 340.659875 109.355068 340.460875 110.653068 C 340.358875 110.855068 340.258875 111.080068 340.159875 111.328068 C 340.058875 111.579068 340.009875 111.853068 340.009875 112.153068 C 339.808875 112.955068 339.433875 113.630068 338.884875 114.178068 C 338.333875 114.729068 337.708875 115.254068 337.009875 115.753068 C 336.208875 115.955068 335.409875 116.254068 334.610875 116.653068 C 333.807875 117.054068 332.959875 117.155068 332.059875 116.953068 Z " fill="rgb(0,0,0)"/><path d=" M 355.307875 169.753068 C 354.805875 170.153068 354.482875 170.855068 354.332875 171.853068 C 354.182875 172.854068 354.055875 173.604068 353.957875 174.103068 C 354.055875 174.404068 354.055875 174.628068 353.957875 174.779068 C 353.855875 174.928068 353.755875 175.104068 353.656875 175.303068 C 353.356875 175.804068 353.154875 176.179068 353.056875 176.428068 C 352.954875 176.679068 352.906875 176.904068 352.906875 177.103068 C 352.906875 177.304068 352.881875 177.503068 352.832875 177.703068 C 352.779875 177.905068 352.606875 178.205068 352.307875 178.603068 L 351.557875 180.404068 L 350.957875 182.203068 C 350.755875 182.804068 350.631875 183.179068 350.582875 183.328068 C 350.529875 183.478068 350.506875 183.603068 350.506875 183.703068 C 350.506875 183.803068 350.481875 183.929068 350.432875 184.078068 C 350.380875 184.228068 350.256875 184.603068 350.057875 185.203068 C 349.555875 187.203068 348.932875 189.453068 348.182875 191.953068 C 347.432875 194.453068 346.907875 196.402068 346.607875 197.805068 C 346.307875 198.303068 346.056875 198.854068 345.857875 199.453068 C 345.655875 200.055068 345.456875 200.752068 345.256875 201.555068 C 345.055875 201.854068 344.957875 202.178068 344.957875 202.530068 C 344.957875 202.880068 344.957875 203.255068 344.957875 203.655068 C 344.957875 203.854068 344.807875 204.303068 344.506875 205.005068 C 344.606875 206.403068 344.154875 207.605068 343.156875 208.605068 C 342.156875 209.603068 341.207875 210.406068 340.306875 211.005068 C 340.005875 211.306068 339.607875 211.355068 339.106875 211.155068 C 338.708875 211.253068 338.232875 211.278068 337.681875 211.229068 C 337.132875 211.178068 336.607875 211.155068 336.106875 211.155068 C 334.507875 211.053068 333.007875 210.053068 331.606875 208.155068 C 330.707875 205.954068 330.757875 203.553068 331.755875 200.954068 L 332.655875 198.255068 C 333.055875 197.056068 333.430875 195.829068 333.780875 194.579068 C 334.132875 193.329068 334.456875 192.204068 334.755875 191.204068 C 334.957875 190.306068 335.156875 189.653068 335.356875 189.255068 C 335.558875 188.855068 335.783875 188.480068 336.031875 188.130068 C 336.282875 187.778068 336.508875 187.403068 336.707875 187.005068 C 336.908875 186.605068 337.107875 185.954068 337.307875 185.055068 C 337.508875 184.355068 337.607875 183.930068 337.607875 183.781068 C 337.607875 183.631068 337.584875 183.529068 337.532875 183.480068 C 337.483875 183.429068 337.483875 183.330068 337.532875 183.180068 C 337.584875 183.031068 337.757875 182.603068 338.057875 181.906068 C 338.357875 181.205068 338.533875 180.758068 338.582875 180.555068 C 338.633875 180.356068 338.656875 180.232068 338.656875 180.180068 C 338.656875 180.130068 338.656875 180.007068 338.656875 179.805068 C 338.656875 179.606068 338.806875 179.107068 339.106875 178.305068 C 339.406875 177.505068 339.781875 176.656068 340.231875 175.755068 C 340.681875 174.854068 341.007875 173.954068 341.207875 173.055068 C 342.205875 170.257068 343.131875 167.055068 343.981875 163.455068 C 344.830875 159.855068 345.804875 156.307068 346.906875 152.805068 C 347.506875 151.406068 347.980875 150.030068 348.332875 148.680068 C 348.681875 147.330068 349.105875 145.957068 349.606875 144.555068 C 350.304875 142.856068 350.830875 141.056068 351.181875 139.155068 C 351.531875 137.257068 352.055875 135.457068 352.755875 133.755068 C 353.153875 132.555068 353.528875 131.156068 353.880875 129.555068 C 354.230875 127.957068 354.579875 126.330068 354.931875 124.680068 C 355.281875 123.030068 355.656875 121.431068 356.056875 119.880068 C 356.454875 118.331068 356.904875 116.955068 357.406875 115.755068 C 357.906875 114.255068 358.506875 113.081068 359.207875 112.230068 C 359.904875 111.381068 360.906875 110.605068 362.207875 109.905068 C 362.705875 109.507068 363.505875 109.507068 364.606875 109.905068 C 364.805875 110.107068 364.981875 110.257068 365.130875 110.355068 C 365.280875 110.456068 365.454875 110.605068 365.655875 110.805068 L 366.706875 111.555068 C 366.804875 111.656068 366.879875 111.757068 366.931875 111.855068 C 366.980875 111.956068 367.105875 112.056068 367.306875 112.155068 C 367.805875 112.455068 368.180875 112.980068 368.431875 113.730068 C 368.679875 114.480068 369.005875 115.255068 369.406875 116.055068 C 369.707875 116.355068 369.804875 116.955068 369.707875 117.855068 C 369.605875 118.755068 369.406875 119.755068 369.106875 120.855068 C 368.806875 121.957068 368.455875 123.006068 368.056875 124.005068 C 367.656875 125.005068 367.355875 125.707068 367.156875 126.105068 C 368.755875 124.005068 370.531875 122.055068 372.481875 120.255068 C 374.431875 118.455068 375.955875 117.006068 377.056875 115.905068 C 379.656875 113.406068 382.355875 111.681068 385.156875 110.730068 C 387.955875 109.781068 390.355875 109.255068 392.356875 109.155068 C 392.555875 109.256068 392.855875 109.230068 393.255875 109.080068 C 393.653875 108.930068 394.005875 108.907068 394.306875 109.005068 C 394.704875 109.207068 395.230875 109.357068 395.880875 109.455068 C 396.530875 109.556068 397.105875 109.755068 397.606875 110.055068 C 398.105875 110.257068 398.957875 110.632068 400.156875 111.180068 C 401.356875 111.731068 402.205875 112.406068 402.707875 113.205068 C 403.006875 113.906068 403.355875 114.506068 403.756875 115.005068 C 404.154875 115.506068 404.455875 116.156068 404.656875 116.955068 C 404.855875 116.955068 405.031875 117.630068 405.181875 118.980068 C 405.331875 120.330068 405.406875 121.830068 405.406875 123.480068 C 405.406875 125.130068 405.355875 126.681068 405.256875 128.130068 C 405.156875 129.581068 405.006875 130.506068 404.807875 130.905068 C 404.606875 133.305068 404.131875 135.681068 403.381875 138.030068 C 402.631875 140.381068 401.807875 142.656068 400.906875 144.855068 C 400.006875 147.355068 398.881875 149.805068 397.531875 152.205068 C 396.181875 154.605068 394.855875 156.907068 393.556875 159.105068 C 392.656875 160.207068 391.805875 161.355068 391.005875 162.555068 C 390.204875 163.755068 389.505875 164.954068 388.905875 166.156068 C 388.505875 166.556068 388.178875 166.980068 387.930875 167.430068 C 387.679875 167.880068 387.254875 168.306068 386.655875 168.704068 C 385.854875 169.806068 384.979875 170.905068 384.030875 172.005068 C 383.079875 173.107068 382.104875 174.056068 381.105875 174.855068 C 379.204875 176.055068 377.504875 177.306068 376.004875 178.605068 C 374.805875 179.407068 373.504875 179.981068 372.105875 180.330068 C 370.704875 180.682068 369.204875 180.907068 367.605875 181.006068 C 366.004875 181.006068 364.456875 180.732068 362.956875 180.181068 C 361.456875 179.633068 360.005875 178.508068 358.605875 176.806068 C 358.104875 176.108068 357.604875 175.207068 357.105875 174.106068 C 356.604875 173.006068 356.153875 172.006068 355.754875 171.106068 C 355.654875 170.907068 355.553875 170.682068 355.455875 170.431068 C 355.356875 170.179068 355.307875 169.955068 355.307875 169.753068 Z  M 363.707875 153.403068 C 363.805875 153.703068 363.756875 154.054068 363.557875 154.453068 C 363.356875 154.854068 363.205875 155.203068 363.107875 155.503068 C 363.107875 156.004068 363.157875 156.928068 363.256875 158.278068 C 363.355875 159.628068 363.406875 160.603068 363.406875 161.203068 C 363.406875 161.705068 363.556875 162.279068 363.856875 162.928068 C 364.156875 163.579068 364.606875 164.179068 365.207875 164.728068 C 365.807875 165.279068 366.455875 165.654068 367.156875 165.853068 C 367.855875 166.054068 368.605875 166.003068 369.406875 165.703068 C 369.906875 165.605068 370.205875 165.504068 370.306875 165.404068 C 370.404875 165.304068 370.704875 165.155068 371.206875 164.953068 C 372.305875 164.256068 373.104875 163.705068 373.605875 163.304068 C 374.104875 162.906068 374.854875 162.254068 375.855875 161.354068 C 377.854875 159.655068 379.729875 157.405068 381.480875 154.604068 C 383.229875 151.805068 384.905875 148.956068 386.504875 146.054068 C 389.104875 141.554068 391.004875 136.105068 392.205875 129.704068 C 392.303875 129.205068 392.378875 128.729068 392.430875 128.279068 C 392.479875 127.829068 392.554875 127.304068 392.655875 126.704068 C 392.655875 125.804068 392.303875 125.106068 391.605875 124.604068 C 390.706875 124.304068 389.854875 124.206068 389.055875 124.304068 C 388.253875 124.805068 387.555875 125.129068 386.955875 125.279068 C 386.354875 125.429068 385.703875 125.755068 385.004875 126.254068 C 382.904875 127.254068 380.654875 128.780068 378.254875 130.829068 C 375.855875 132.880068 373.953875 134.755068 372.555875 136.454068 C 370.854875 138.055068 369.304875 140.331068 367.905875 143.279068 C 366.505875 146.229068 365.106875 149.604068 363.707875 153.403068 Z " fill="rgb(0,0,0)"/><path d=" M 418.906875 169.753068 C 418.404875 170.153068 418.081875 170.855068 417.931875 171.853068 C 417.781875 172.854068 417.654875 173.604068 417.556875 174.103068 C 417.654875 174.404068 417.654875 174.628068 417.556875 174.779068 C 417.454875 174.928068 417.354875 175.104068 417.255875 175.303068 C 416.955875 175.804068 416.753875 176.179068 416.655875 176.428068 C 416.553875 176.679068 416.505875 176.904068 416.505875 177.103068 C 416.505875 177.304068 416.480875 177.503068 416.431875 177.703068 C 416.378875 177.905068 416.205875 178.205068 415.906875 178.603068 L 415.156875 180.404068 L 414.556875 182.203068 C 414.354875 182.804068 414.230875 183.179068 414.181875 183.328068 C 414.128875 183.478068 414.105875 183.603068 414.105875 183.703068 C 414.105875 183.803068 414.080875 183.929068 414.031875 184.078068 C 413.979875 184.228068 413.855875 184.603068 413.656875 185.203068 C 413.154875 187.203068 412.531875 189.453068 411.781875 191.953068 C 411.031875 194.453068 410.506875 196.402068 410.206875 197.805068 C 409.906875 198.303068 409.655875 198.854068 409.456875 199.453068 C 409.254875 200.055068 409.055875 200.752068 408.855875 201.555068 C 408.654875 201.854068 408.556875 202.178068 408.556875 202.530068 C 408.556875 202.880068 408.556875 203.255068 408.556875 203.655068 C 408.556875 203.854068 408.406875 204.303068 408.105875 205.005068 C 408.205875 206.403068 407.753875 207.605068 406.755875 208.605068 C 405.755875 209.603068 404.806875 210.406068 403.905875 211.005068 C 403.604875 211.306068 403.206875 211.355068 402.705875 211.155068 C 402.307875 211.253068 401.831875 211.278068 401.280875 211.229068 C 400.731875 211.178068 400.206875 211.155068 399.705875 211.155068 C 398.106875 211.053068 396.606875 210.053068 395.205875 208.155068 C 394.306875 205.954068 394.356875 203.553068 395.354875 200.954068 L 396.254875 198.255068 C 396.654875 197.056068 397.029875 195.829068 397.379875 194.579068 C 397.731875 193.329068 398.055875 192.204068 398.354875 191.204068 C 398.556875 190.306068 398.755875 189.653068 398.955875 189.255068 C 399.157875 188.855068 399.382875 188.480068 399.630875 188.130068 C 399.881875 187.778068 400.107875 187.403068 400.306875 187.005068 C 400.507875 186.605068 400.706875 185.954068 400.906875 185.055068 C 401.107875 184.355068 401.206875 183.930068 401.206875 183.781068 C 401.206875 183.631068 401.183875 183.529068 401.131875 183.480068 C 401.082875 183.429068 401.082875 183.330068 401.131875 183.180068 C 401.183875 183.031068 401.356875 182.603068 401.656875 181.906068 C 401.956875 181.205068 402.132875 180.758068 402.181875 180.555068 C 402.232875 180.356068 402.255875 180.232068 402.255875 180.180068 C 402.255875 180.130068 402.255875 180.007068 402.255875 179.805068 C 402.255875 179.606068 402.405875 179.107068 402.705875 178.305068 C 403.005875 177.505068 403.380875 176.656068 403.830875 175.755068 C 404.280875 174.854068 404.606875 173.954068 404.806875 173.055068 C 405.804875 170.257068 406.730875 167.055068 407.580875 163.455068 C 408.429875 159.855068 409.403875 156.307068 410.505875 152.805068 C 411.105875 151.406068 411.579875 150.030068 411.931875 148.680068 C 412.280875 147.330068 412.704875 145.957068 413.205875 144.555068 C 413.903875 142.856068 414.429875 141.056068 414.780875 139.155068 C 415.130875 137.257068 415.654875 135.457068 416.354875 133.755068 C 416.752875 132.555068 417.127875 131.156068 417.479875 129.555068 C 417.829875 127.957068 418.178875 126.330068 418.530875 124.680068 C 418.880875 123.030068 419.255875 121.431068 419.655875 119.880068 C 420.053875 118.331068 420.503875 116.955068 421.005875 115.755068 C 421.505875 114.255068 422.105875 113.081068 422.806875 112.230068 C 423.503875 111.381068 424.505875 110.605068 425.806875 109.905068 C 426.304875 109.507068 427.104875 109.507068 428.205875 109.905068 C 428.404875 110.107068 428.580875 110.257068 428.729875 110.355068 C 428.879875 110.456068 429.053875 110.605068 429.254875 110.805068 L 430.305875 111.555068 C 430.403875 111.656068 430.478875 111.757068 430.530875 111.855068 C 430.579875 111.956068 430.704875 112.056068 430.905875 112.155068 C 431.404875 112.455068 431.779875 112.980068 432.030875 113.730068 C 432.278875 114.480068 432.604875 115.255068 433.005875 116.055068 C 433.306875 116.355068 433.403875 116.955068 433.306875 117.855068 C 433.204875 118.755068 433.005875 119.755068 432.705875 120.855068 C 432.405875 121.957068 432.054875 123.006068 431.655875 124.005068 C 431.255875 125.005068 430.954875 125.707068 430.755875 126.105068 C 432.354875 124.005068 434.130875 122.055068 436.080875 120.255068 C 438.030875 118.455068 439.554875 117.006068 440.655875 115.905068 C 443.255875 113.406068 445.954875 111.681068 448.755875 110.730068 C 451.554875 109.781068 453.954875 109.255068 455.955875 109.155068 C 456.154875 109.256068 456.454875 109.230068 456.854875 109.080068 C 457.252875 108.930068 457.604875 108.907068 457.905875 109.005068 C 458.303875 109.207068 458.829875 109.357068 459.479875 109.455068 C 460.129875 109.556068 460.704875 109.755068 461.205875 110.055068 C 461.704875 110.257068 462.556875 110.632068 463.755875 111.180068 C 464.955875 111.731068 465.804875 112.406068 466.306875 113.205068 C 466.605875 113.906068 466.954875 114.506068 467.355875 115.005068 C 467.753875 115.506068 468.054875 116.156068 468.255875 116.955068 C 468.454875 116.955068 468.630875 117.630068 468.780875 118.980068 C 468.930875 120.330068 469.005875 121.830068 469.005875 123.480068 C 469.005875 125.130068 468.954875 126.681068 468.855875 128.130068 C 468.755875 129.581068 468.605875 130.506068 468.406875 130.905068 C 468.205875 133.305068 467.730875 135.681068 466.980875 138.030068 C 466.230875 140.381068 465.406875 142.656068 464.505875 144.855068 C 463.605875 147.355068 462.480875 149.805068 461.130875 152.205068 C 459.780875 154.605068 458.454875 156.907068 457.155875 159.105068 C 456.255875 160.207068 455.404875 161.355068 454.604875 162.555068 C 453.803875 163.755068 453.104875 164.954068 452.504875 166.156068 C 452.104875 166.556068 451.777875 166.980068 451.529875 167.430068 C 451.278875 167.880068 450.853875 168.306068 450.254875 168.704068 C 449.453875 169.806068 448.578875 170.905068 447.629875 172.005068 C 446.678875 173.107068 445.703875 174.056068 444.704875 174.855068 C 442.803875 176.055068 441.103875 177.306068 439.603875 178.605068 C 438.404875 179.407068 437.103875 179.981068 435.704875 180.330068 C 434.303875 180.682068 432.803875 180.907068 431.204875 181.006068 C 429.603875 181.006068 428.055875 180.732068 426.555875 180.181068 C 425.055875 179.633068 423.604875 178.508068 422.204875 176.806068 C 421.703875 176.108068 421.203875 175.207068 420.704875 174.106068 C 420.203875 173.006068 419.752875 172.006068 419.353875 171.106068 C 419.253875 170.907068 419.152875 170.682068 419.054875 170.431068 C 418.955875 170.179068 418.906875 169.955068 418.906875 169.753068 Z  M 427.307875 153.403068 C 427.405875 153.703068 427.356875 154.054068 427.157875 154.453068 C 426.956875 154.854068 426.805875 155.203068 426.707875 155.503068 C 426.707875 156.004068 426.757875 156.928068 426.856875 158.278068 C 426.955875 159.628068 427.006875 160.603068 427.006875 161.203068 C 427.006875 161.705068 427.156875 162.279068 427.456875 162.928068 C 427.756875 163.579068 428.206875 164.179068 428.807875 164.728068 C 429.407875 165.279068 430.055875 165.654068 430.756875 165.853068 C 431.455875 166.054068 432.205875 166.003068 433.006875 165.703068 C 433.506875 165.605068 433.805875 165.504068 433.906875 165.404068 C 434.004875 165.304068 434.304875 165.155068 434.806875 164.953068 C 435.905875 164.256068 436.704875 163.705068 437.205875 163.304068 C 437.704875 162.906068 438.454875 162.254068 439.455875 161.354068 C 441.454875 159.655068 443.329875 157.405068 445.080875 154.604068 C 446.829875 151.805068 448.505875 148.956068 450.104875 146.054068 C 452.704875 141.554068 454.604875 136.105068 455.805875 129.704068 C 455.903875 129.205068 455.978875 128.729068 456.030875 128.279068 C 456.079875 127.829068 456.154875 127.304068 456.255875 126.704068 C 456.255875 125.804068 455.903875 125.106068 455.205875 124.604068 C 454.306875 124.304068 453.454875 124.206068 452.655875 124.304068 C 451.853875 124.805068 451.155875 125.129068 450.555875 125.279068 C 449.954875 125.429068 449.303875 125.755068 448.604875 126.254068 C 446.504875 127.254068 444.254875 128.780068 441.854875 130.829068 C 439.455875 132.880068 437.553875 134.755068 436.155875 136.454068 C 434.454875 138.055068 432.904875 140.331068 431.505875 143.279068 C 430.105875 146.229068 428.705875 149.604068 427.307875 153.403068 Z " fill="rgb(0,0,0)"/><path d=" M 536.955875 185.953068 C 538.654875 186.152068 540.305875 186.555068 541.906875 187.154068 C 543.504875 187.754068 544.853875 188.752068 545.955875 190.154068 C 546.154875 190.353068 546.279875 190.504068 546.330875 190.603068 C 546.381875 190.702068 546.455875 190.802068 546.557875 190.904068 C 546.557875 191.103068 546.530875 191.328068 546.481875 191.578068 C 546.430875 191.828068 546.456875 192.053068 546.557875 192.254068 C 546.557875 192.652068 546.606875 192.953068 546.705875 193.154068 C 546.504875 193.353068 546.279875 193.529068 546.031875 193.679068 C 545.779875 193.827068 545.554875 194.103068 545.355875 194.503068 C 545.255875 194.702068 545.205875 195.052068 545.205875 195.554068 C 545.105875 195.753068 544.955875 195.827068 544.756875 195.779068 C 544.555875 195.726068 544.455875 195.802068 544.455875 196.004068 C 544.254875 196.305068 543.980875 196.504068 543.631875 196.604068 C 543.279875 196.704068 543.154875 196.954068 543.256875 197.354068 L 543.106875 197.504068 C 542.604875 197.504068 542.030875 197.629068 541.381875 197.879068 C 540.729875 198.127068 540.055875 198.152068 539.356875 197.953068 C 538.555875 197.853068 537.782875 197.828068 537.032875 197.879068 C 536.282875 197.928068 535.507875 197.953068 534.706875 197.953068 L 523.308875 198.555068 C 521.206875 198.754068 519.107875 198.979068 517.007875 199.229068 C 514.907875 199.477068 512.808875 199.704068 510.706875 199.905068 C 509.206875 200.104068 507.729875 200.303068 506.282875 200.505068 C 504.831875 200.704068 503.405875 200.903068 502.007875 201.105068 C 501.505875 201.105068 501.130875 201.128068 500.882875 201.181068 C 500.632875 201.230068 500.357875 201.304068 500.058875 201.406068 C 499.656875 201.605068 499.308875 202.054068 499.007875 202.756068 C 498.706875 203.455068 498.456875 204.006068 498.257875 204.406068 C 497.256875 206.404068 496.181875 208.230068 495.032875 209.881068 C 493.881875 211.531068 492.606875 213.406068 491.206875 215.506068 C 490.405875 216.805068 489.530875 218.004068 488.581875 219.106068 C 487.630875 220.206068 486.706875 221.305068 485.807875 222.407068 C 485.306875 223.206068 484.732875 223.930068 484.081875 224.581068 C 483.430875 225.232068 482.856875 225.905068 482.356875 226.606068 L 477.706875 231.256068 C 476.106875 232.654068 474.431875 234.006068 472.682875 235.307068 C 470.931875 236.604068 469.206875 237.805068 467.507875 238.907068 L 464.507875 240.407068 C 464.308875 240.606068 464.206875 240.655068 464.206875 240.557068 C 463.808875 240.354068 463.606875 240.455068 463.606875 240.856068 C 463.407875 240.956068 463.256875 241.055068 463.157875 241.157068 C 463.057875 241.255068 462.958875 241.307068 462.856875 241.307068 C 462.357875 241.205068 461.806875 241.254068 461.206875 241.455068 C 460.606875 241.654068 460.007875 241.930068 459.407875 242.281068 C 458.806875 242.631068 458.108875 242.955068 457.306875 243.256068 L 456.106875 243.856068 C 455.907875 244.055068 455.607875 244.157068 455.206875 244.157068 C 454.509875 244.255068 453.833875 244.382068 453.182875 244.532068 C 452.533875 244.682068 451.808875 244.854068 451.007875 245.057068 C 450.507875 245.155068 450.083875 245.180068 449.732875 245.131068 C 449.382875 245.080068 449.007875 245.106068 448.607875 245.205068 C 448.007875 245.305068 447.308875 245.355068 446.507875 245.355068 C 445.708875 245.355068 444.857875 245.355068 443.956875 245.355068 C 443.057875 245.355068 442.183875 245.304068 441.331875 245.205068 C 440.483875 245.105068 439.808875 245.057068 439.307875 245.057068 C 437.409875 245.057068 435.658875 244.606068 434.057875 243.705068 C 432.958875 243.504068 431.807875 242.955068 430.607875 242.057068 C 429.609875 241.356068 428.709875 240.705068 427.908875 240.106068 C 427.108875 239.506068 426.408875 238.706068 425.807875 237.706068 C 424.607875 236.507068 423.808875 235.206068 423.408875 233.808068 C 422.308875 231.408068 421.709875 228.706068 421.607875 225.706068 C 421.607875 223.706068 421.908875 221.856068 422.507875 220.157068 C 423.009875 218.456068 423.683875 216.905068 424.532875 215.507068 C 425.382875 214.105068 426.307875 212.808068 427.306875 211.607068 C 428.707875 209.808068 430.407875 208.158068 432.407875 206.658068 C 433.509875 205.855068 434.581875 205.158068 435.632875 204.558068 C 436.682875 203.956068 437.757875 203.357068 438.857875 202.757068 L 444.257875 200.657068 C 445.157875 200.257068 446.057875 199.930068 446.956875 199.682068 C 447.856875 199.430068 448.757875 199.157068 449.657875 198.856068 C 450.556875 198.655068 451.509875 198.381068 452.507875 198.032068 C 453.507875 197.680068 454.509875 197.405068 455.507875 197.206068 C 456.808875 196.907068 458.083875 196.581068 459.331875 196.231068 C 460.583875 195.879068 461.807875 195.606068 463.007875 195.407068 L 467.057875 194.507068 L 471.706875 193.907068 C 471.806875 193.907068 472.056875 193.805068 472.456875 193.606068 C 473.155875 193.506068 473.807875 193.430068 474.407875 193.381068 C 475.007875 193.330068 475.705875 193.205068 476.507875 193.006068 L 489.257875 190.756068 C 489.857875 190.654068 490.081875 190.654068 489.932875 190.756068 C 489.783875 190.854068 489.857875 190.654068 490.158875 190.156068 C 490.256875 189.955068 490.307875 189.654068 490.307875 189.256068 C 490.506875 188.656068 490.757875 188.057068 491.057875 187.455068 C 491.357875 186.855068 491.605875 186.256068 491.807875 185.656068 C 492.006875 185.055068 492.182875 184.455068 492.331875 183.855068 C 492.481875 183.255068 492.655875 182.656068 492.856875 182.055068 L 493.606875 179.505068 L 494.206875 177.855068 C 494.306875 177.356068 494.331875 176.880068 494.282875 176.430068 C 494.229875 175.980068 494.305875 175.357068 494.507875 174.555068 L 494.956875 173.055068 C 494.755875 173.055068 494.807875 172.706068 495.106875 172.005068 C 495.407875 171.306068 495.504875 171.007068 495.407875 171.105068 C 495.006875 171.607068 494.507875 172.181068 493.907875 172.830068 C 493.306875 173.482068 492.655875 174.157068 491.956875 174.855068 C 491.256875 175.556068 490.581875 176.205068 489.932875 176.805068 C 489.281875 177.406068 488.706875 177.907068 488.206875 178.305068 C 486.106875 180.105068 483.606875 181.504068 480.706875 182.505068 C 480.106875 182.704068 479.657875 182.903068 479.356875 183.105068 C 477.655875 183.304068 475.981875 183.429068 474.331875 183.480068 C 472.682875 183.529068 471.006875 182.955068 469.307875 181.755068 C 468.808875 181.253068 468.331875 180.731068 467.882875 180.180068 C 467.432875 179.632068 467.057875 179.005068 466.757875 178.305068 C 466.558875 177.806068 466.359875 177.255068 466.157875 176.656068 C 465.958875 176.055068 465.856875 175.455068 465.856875 174.855068 C 465.856875 174.457068 465.833875 174.255068 465.782875 174.255068 C 465.732875 174.255068 465.657875 174.105068 465.556875 173.805068 C 465.457875 171.607068 465.556875 169.255068 465.856875 166.755068 C 466.256875 163.856068 466.883875 161.081068 467.731875 158.430068 C 468.583875 155.782068 469.456875 153.105068 470.356875 150.405068 C 471.354875 147.506068 472.430875 144.731068 473.581875 142.080068 C 474.729875 139.432068 475.907875 136.706068 477.106875 133.905068 C 477.606875 132.705068 478.055875 131.632068 478.456875 130.680068 C 478.854875 129.731068 479.229875 128.805068 479.581875 127.905068 C 479.931875 127.005068 480.280875 126.082068 480.632875 125.130068 C 480.982875 124.181068 481.405875 123.056068 481.907875 121.755068 C 482.507875 119.857068 482.806875 118.005068 482.806875 116.205068 C 482.905875 115.905068 482.955875 115.631068 482.955875 115.380068 C 482.955875 115.131068 483.055875 114.906068 483.256875 114.705068 C 483.455875 114.307068 483.606875 113.955068 483.705875 113.655068 C 483.804875 113.355068 483.954875 113.055068 484.156875 112.755068 C 484.955875 112.556068 485.679875 112.331068 486.330875 112.080068 C 486.980875 111.832068 487.654875 111.656068 488.355875 111.555068 C 489.255875 111.157068 490.103875 111.157068 490.906875 111.555068 L 492.406875 112.005068 C 493.305875 112.207068 494.105875 112.856068 494.805875 113.955068 C 495.503875 115.155068 496.005875 116.381068 496.305875 117.630068 C 496.605875 118.881068 496.605875 120.206068 496.305875 121.605068 C 496.103875 122.906068 495.781875 124.207068 495.329875 125.505068 C 494.880875 126.806068 494.453875 128.055068 494.055875 129.255068 C 493.755875 130.155068 493.478875 130.905068 493.230875 131.505068 C 492.980875 132.105068 492.705875 132.630068 492.406875 133.080068 C 492.105875 133.530068 491.805875 134.032068 491.506875 134.580068 C 491.205875 135.131068 490.854875 135.855068 490.455875 136.755068 L 485.205875 149.505068 C 484.605875 150.906068 484.103875 152.156068 483.705875 153.255068 C 483.305875 154.357068 482.930875 155.406068 482.580875 156.405068 C 482.228875 157.406068 481.880875 158.482068 481.531875 159.630068 C 481.179875 160.781068 480.755875 162.105068 480.256875 163.605068 C 479.454875 166.005068 479.506875 167.457068 480.406875 167.955068 C 481.305875 168.457068 482.554875 167.955068 484.156875 166.455068 C 484.654875 166.057068 485.029875 165.731068 485.281875 165.480068 C 485.529875 165.232068 485.730875 165.031068 485.881875 164.880068 C 486.032875 164.729068 486.204875 164.556068 486.406875 164.355068 C 486.605875 164.156068 486.954875 163.856068 487.455875 163.455068 C 488.555875 162.255068 489.631875 161.107068 490.681875 160.005068 C 491.731875 158.906068 492.755875 157.755068 493.756875 156.555068 C 495.354875 155.055068 496.880875 153.330068 498.330875 151.380068 C 499.779875 149.430068 501.055875 147.555068 502.156875 145.755068 C 503.355875 143.857068 504.429875 142.031068 505.381875 140.280068 C 506.330875 138.531068 507.354875 136.706068 508.455875 134.805068 C 509.256875 133.706068 509.830875 132.555068 510.182875 131.355068 C 510.530875 130.155068 511.055875 129.006068 511.756875 127.905068 L 514.455875 121.755068 C 514.853875 120.756068 515.205875 119.781068 515.506875 118.830068 C 515.807875 117.881068 516.205875 116.906068 516.705875 115.905068 C 516.904875 115.706068 517.055875 115.431068 517.156875 115.080068 C 517.254875 114.731068 517.404875 114.405068 517.605875 114.105068 C 518.003875 113.707068 518.255875 113.256068 518.355875 112.755068 C 518.855875 111.555068 519.654875 110.805068 520.755875 110.505068 C 521.454875 110.406068 522.030875 110.231068 522.480875 109.980068 C 522.931875 109.731068 523.355875 109.455068 523.755875 109.155068 L 527.505875 109.605068 C 528.204875 109.605068 528.704875 109.905068 529.005875 110.505068 C 529.204875 110.707068 529.380875 110.955068 529.530875 111.255068 C 529.680875 111.555068 529.852875 111.806068 530.055875 112.005068 C 530.655875 112.905068 531.004875 113.805068 531.104875 114.705068 C 531.204875 115.605068 531.153875 116.606068 530.954875 117.705068 C 530.454875 119.805068 529.729875 121.781068 528.780875 123.630068 C 527.829875 125.482068 527.003875 127.406068 526.305875 129.405068 C 525.903875 130.207068 525.502875 131.006068 525.104875 131.805068 C 524.704875 132.607068 524.354875 133.406068 524.055875 134.205068 C 523.354875 135.907068 522.629875 137.606068 521.879875 139.305068 C 521.129875 141.007068 520.402875 142.755068 519.703875 144.555068 C 518.805875 146.756068 517.851875 148.980068 516.853875 151.230068 C 515.853875 153.480068 514.953875 155.755068 514.154875 158.055068 C 513.754875 159.056068 513.351875 160.031068 512.953875 160.980068 C 512.553875 161.931068 512.254875 162.956068 512.055875 164.055068 C 511.252875 165.956068 510.754875 167.579068 510.555875 168.930068 C 510.352875 170.281068 509.953875 171.855068 509.354875 173.656068 C 508.653875 175.856068 508.053875 177.731068 507.555875 179.281068 C 507.053875 180.832068 506.504875 182.754068 505.905875 185.055068 C 505.905875 185.355068 505.704875 185.954068 505.305875 186.855068 C 504.903875 187.755068 504.803875 188.205068 505.004875 188.205068 L 504.703875 189.105068 C 506.703875 188.806068 508.703875 188.505068 510.703875 188.205068 C 512.703875 187.906068 514.703875 187.654068 516.703875 187.455068 L 536.955875 185.953068 Z  M 482.656875 204.554068 C 482.454875 204.351068 482.179875 204.327068 481.830875 204.478068 C 481.478875 204.628068 481.156875 204.703068 480.855875 204.703068 C 480.255875 204.902068 479.254875 205.078068 477.855875 205.228068 C 476.454875 205.378068 475.355875 205.552068 474.555875 205.753068 C 473.954875 205.952068 473.378875 206.128068 472.829875 206.278068 C 472.278875 206.428068 471.754875 206.551068 471.255875 206.653068 L 465.405875 207.702068 C 464.305875 207.901068 463.206875 208.153068 462.104875 208.452068 C 461.004875 208.753068 459.906875 209.054068 458.804875 209.352068 C 457.506875 209.551068 456.205875 209.852068 454.905875 210.252068 C 453.606875 210.650068 452.305875 211.100068 451.005875 211.602068 C 449.905875 211.903068 448.706875 212.452068 447.405875 213.252068 C 446.106875 214.051068 444.906875 214.650068 443.804875 215.053068 L 442.754875 215.803068 L 441.404875 217.002068 L 439.754875 218.652068 C 439.453875 218.951068 439.180875 219.226068 438.929875 219.476068 C 438.680875 219.724068 438.455875 220.099068 438.254875 220.601068 C 437.256875 222.001068 437.054875 223.701068 437.654875 225.701068 C 438.254875 227.803068 439.303875 229.051068 440.803875 229.451068 C 442.704875 230.252068 444.304875 230.652068 445.603875 230.652068 C 447.804875 230.951068 450.304875 230.750068 453.103875 230.052068 C 453.304875 229.849068 453.703875 229.650068 454.303875 229.450068 C 454.904875 229.249068 455.353875 229.151068 455.654875 229.151068 L 459.703875 227.051068 C 460.304875 226.848068 460.854875 226.526068 461.353875 226.074068 C 461.855875 225.625068 462.455875 225.250068 463.154875 224.949068 C 463.754875 224.748068 464.330875 224.426068 464.879875 223.974068 C 465.430875 223.525068 465.955875 223.199068 466.453875 222.999068 C 466.655875 222.798068 466.930875 222.573068 467.279875 222.323068 C 467.631875 222.073068 468.054875 221.800068 468.553875 221.499068 C 469.753875 220.397068 470.976875 219.249068 472.228875 218.050068 C 473.478875 216.849068 474.652875 215.548068 475.753875 214.150068 C 476.552875 213.048068 477.351875 212.125068 478.153875 211.375068 C 478.952875 210.625068 479.653875 209.748068 480.253875 208.750068 L 482.656875 204.554068 Z " fill="rgb(0,0,0)"/></g></svg>